<svg width="665" height="472" viewBox="0 0 665 472" fill="none" xmlns="http://www.w3.org/2000/svg">
<g clip-path="url(#clip0)">
<path opacity="0.1" d="M376.143 64.2596C333.518 64.3182 292.489 51.8951 253.245 38.0944C214.001 24.2936 175.059 8.83948 133.226 2.29085C106.322 -1.91857 75.7282 -1.53163 54.6976 13.7524C34.454 28.4561 28.5919 52.7921 25.7635 75.2756C23.6365 92.1895 22.6557 109.942 30.622 125.413C36.1533 136.154 45.6194 145.007 52.2912 155.243C75.5799 190.853 61.5748 236.342 38.9418 272.778C28.3296 289.874 15.8983 306.26 7.875 324.335C-0.148315 342.409 -3.43862 362.905 4.74437 380.746C12.8532 398.428 31.1694 411.261 50.8257 420.026C90.7427 437.86 137.217 441.683 182.443 443.154C282.555 446.42 382.861 439.76 482.899 433.1C519.919 430.637 557.104 428.157 593.36 421.022C613.49 417.065 634.218 411.191 648.491 398.316C666.608 381.971 670.315 355.284 657.131 336.101C635.022 303.927 576.726 297.859 560.874 263.046C552.132 243.881 559.67 221.902 570.773 203.428C594.586 163.791 635.575 128.286 636.265 83.9524C636.739 53.5074 615.423 23.807 583.586 10.5748C550.216 -3.28458 504.716 0.279941 481.336 26.111C457.295 52.7218 413.78 64.2185 376.143 64.2596Z" fill="#FFE34D"/>
<path d="M565.983 378.355C565.983 378.355 558.975 373.6 552.029 376.983C552.029 376.983 554.168 381.216 562.961 380.817L565.983 378.355Z" fill="#FFE34D"/>
<path d="M566.873 378.607C566.873 378.607 569.005 386.956 563.656 392.637C563.656 392.637 560.44 389.195 563.656 380.765L566.873 378.607Z" fill="#FFE34D"/>
<path d="M575.586 370.593C575.586 370.593 575.067 363.493 559.471 365.85C559.471 365.85 559.397 370.429 564.871 372.598C570.345 374.767 572.854 372.938 575.586 370.593Z" fill="#FFE34D"/>
<path d="M576.567 370.546C576.567 370.546 583.159 372.721 577.279 387.759C577.279 387.759 572.929 386.762 572.147 380.776C571.366 374.791 573.681 372.727 576.567 370.546Z" fill="#FFE34D"/>
<path d="M585.371 360.474C585.371 360.474 586.266 348.79 570.328 349.986C570.328 349.986 569.188 360.538 582.56 363.282L585.371 360.474Z" fill="#FFE34D"/>
<path d="M595.904 347.283C595.904 347.283 593.72 334.039 577.787 337.985C577.787 337.985 577.73 349.434 593.303 350.437L595.904 347.283Z" fill="#FFE34D"/>
<path d="M603.602 333.646C603.602 333.646 599.941 320.748 584.157 324.606C584.157 324.606 587.914 336.208 602.553 336.026L603.602 333.646Z" fill="#FFE34D"/>
<path d="M610.912 320.326C610.912 320.326 607.337 306.942 592.094 310.946C592.094 310.946 597.181 323.662 609.903 322.589L610.912 320.326Z" fill="#FFE34D"/>
<path d="M615.623 307.674C615.623 307.674 612.874 291.306 598.664 294.929C598.664 294.929 602.792 309.82 614.579 310.061L615.623 307.674Z" fill="#FFE34D"/>
<path d="M620.042 292.39C620.042 292.39 616.74 275.893 602.365 280.665C602.365 280.665 607.998 296.26 619.021 294.647L620.042 292.39Z" fill="#FFE34D"/>
<path d="M622.757 278.167C622.757 278.167 617.516 261.664 606.402 262.11C606.402 262.11 611.756 279.539 621.827 281.456L622.757 278.167Z" fill="#FFE34D"/>
<path d="M624.513 264.285C624.513 264.285 618.81 244.422 609.766 245.952C609.766 245.952 613.712 261.136 624.193 267.38L624.513 264.285Z" fill="#FFE34D"/>
<path d="M625.505 247.722C625.505 247.722 620.156 231.172 611.249 230.51C611.249 230.51 614.887 246.796 625.328 252.026L625.505 247.722Z" fill="#FFE34D"/>
<path d="M626.583 232.268C626.583 232.268 619.917 215.7 614.037 215.325C614.037 215.325 616.934 231.641 626.013 234.989L626.583 232.268Z" fill="#FFE34D"/>
<path d="M627.318 217.893C627.318 217.893 623.218 199.9 617.328 198.405C617.328 198.405 618.132 213.127 626.725 219.241L627.318 217.893Z" fill="#FFE34D"/>
<path d="M629.542 199.062C629.542 199.062 625.231 184.716 620.458 182.529C620.458 182.529 621.399 199.443 628.442 202.568L629.542 199.062Z" fill="#FFE34D"/>
<path d="M631.384 186.75L632.251 161.459C632.251 161.459 623.327 180.524 630.74 191.188L631.384 186.75Z" fill="#FFE34D"/>
<path d="M638.273 161.594C638.273 161.594 644.699 143.126 646.256 142.094C646.256 142.094 633.654 154.078 634.886 169.491L638.273 161.594Z" fill="#FFE34D"/>
<path d="M585.805 360.386C585.805 360.386 597.107 358.867 596.77 375.289C596.77 375.289 586.557 377.001 583.222 363.417L585.805 360.386Z" fill="#FFE34D"/>
<path d="M596.44 346.837C596.44 346.837 609.498 346.796 608.415 363.605C608.415 363.605 597.449 365.621 593.834 350.015L596.44 346.837Z" fill="#FFE34D"/>
<path d="M603.727 334.731C603.727 334.731 615.583 329.015 623.167 343.771C623.167 343.771 612.218 348.532 602.678 337.117L603.727 334.731Z" fill="#FFE34D"/>
<path d="M611.175 320.449C611.175 320.449 623.315 314.37 630.443 328.78C630.443 328.78 617.795 333.259 610.171 322.73L611.175 320.449Z" fill="#FFE34D"/>
<path d="M615.469 308.032C615.469 308.032 627.153 296.559 636.476 308.161C636.476 308.161 624.541 317.606 614.933 310.588L615.469 308.032Z" fill="#FFE34D"/>
<path d="M619.381 291.998C619.381 291.998 631.133 280.272 640.383 292.537C640.383 292.537 627.193 302.169 618.959 294.46L619.381 291.998Z" fill="#FFE34D"/>
<path d="M621.576 277.698C621.576 277.698 630.631 263.042 641.295 266.313C641.295 266.313 631.897 281.832 621.679 281.14L621.576 277.698Z" fill="#FFE34D"/>
<path d="M624.245 264.191C624.245 264.191 633.369 245.735 642.002 248.948C642.002 248.948 635.422 263.136 624.011 267.304L624.245 264.191Z" fill="#FFE34D"/>
<path d="M624.878 246.761C624.878 246.761 634.258 232.233 643.046 234.01C643.046 234.01 635.376 248.743 623.965 250.965L624.878 246.761Z" fill="#FFE34D"/>
<path d="M625.608 231.946C625.608 231.946 632.878 215.642 638.786 215.53C638.786 215.53 635.296 231.717 626.098 234.713L625.608 231.946Z" fill="#FFE34D"/>
<path d="M627.033 217.541C627.033 217.541 635.113 201.032 641.187 200.997C641.187 200.997 637.052 215.114 627.301 218.989L627.033 217.541Z" fill="#FFE34D"/>
<path d="M628.248 200.094C628.248 200.094 634.292 186.434 639.299 184.886C639.299 184.886 636.277 201.536 628.915 203.717L628.248 200.094Z" fill="#FFE34D"/>
<path d="M632.103 186.252L645.612 165.094C645.612 165.094 642.15 185.965 630.13 190.303L632.103 186.252Z" fill="#FFE34D"/>
<path d="M641.375 163.3C641.375 163.3 657.074 152.16 657.644 150.361C657.644 150.361 649.66 165.961 634.834 168.717L641.375 163.3Z" fill="#FFE34D"/>
<path d="M642.316 158.287C642.316 158.287 660.341 140.47 664.943 140.488C664.943 140.488 650.077 141.185 641.882 157.337L642.316 158.287Z" fill="#FFE34D"/>
<path d="M628.425 202.738L629.08 202.826C632.468 175.57 637.406 159.442 642.983 157.466L642.766 156.821C636.853 158.932 631.88 174.814 628.425 202.738Z" fill="#444053"/>
<path d="M623.441 267.919L624.433 268.002C624.644 265.457 624.804 262.854 624.912 260.257C625.859 237.697 627.324 216.978 629.252 201.448L628.681 200.715C626.748 216.281 624.866 237.621 623.92 260.216C623.811 262.795 623.652 265.387 623.441 267.919Z" fill="#444053"/>
<path d="M547.485 391.359C547.656 391.282 565.122 383.262 583.25 364.138C593.871 352.937 602.696 340.075 609.396 326.031C617.778 308.483 622.888 286.92 624.598 265.973L623.566 266.471C619.717 313.49 598.898 345.618 582.343 363.118C564.392 382.072 547.12 390.01 546.948 390.086L547.485 391.359Z" fill="#444053"/>
<path d="M592.71 49.9678H44.7754C43.4808 49.9678 42.2393 50.4965 41.3239 51.4376C40.4084 52.3788 39.8942 53.6553 39.8942 54.9862V69.6078H597.592V54.9862C597.592 53.6553 597.077 52.3788 596.162 51.4376C595.247 50.4965 594.005 49.9678 592.71 49.9678Z" fill="#3F3D56"/>
<path d="M39.8942 69.6078V398.646C39.8942 401.33 40.9311 403.903 42.7769 405.801C44.6227 407.699 47.1262 408.765 49.7366 408.765H587.749C590.36 408.765 592.863 407.699 594.709 405.801C596.555 403.903 597.592 401.33 597.592 398.646V69.6078H39.8942Z" fill="white"/>
<path opacity="0.8" d="M48.7271 61.9863C49.9869 61.9863 51.0081 60.9364 51.0081 59.6412C51.0081 58.3461 49.9869 57.2961 48.7271 57.2961C47.4674 57.2961 46.4462 58.3461 46.4462 59.6412C46.4462 60.9364 47.4674 61.9863 48.7271 61.9863Z" fill="#FA5959"/>
<path opacity="0.8" d="M54.9998 61.9863C56.2596 61.9863 57.2808 60.9364 57.2808 59.6412C57.2808 58.3461 56.2596 57.2961 54.9998 57.2961C53.7401 57.2961 52.7189 58.3461 52.7189 59.6412C52.7189 60.9364 53.7401 61.9863 54.9998 61.9863Z" fill="#FED253"/>
<path opacity="0.8" d="M61.2727 61.9863C62.5324 61.9863 63.5536 60.9364 63.5536 59.6412C63.5536 58.3461 62.5324 57.2961 61.2727 57.2961C60.0129 57.2961 58.9917 58.3461 58.9917 59.6412C58.9917 60.9364 60.0129 61.9863 61.2727 61.9863Z" fill="#8CCF4D"/>
<path opacity="0.05" d="M539.946 124.471H91.735V327.097H539.946V124.471Z" fill="black"/>
<path d="M536.524 126.007H95.1564V324.166H536.524V126.007Z" fill="#3F3D56"/>
<path d="M215.478 177.007C206.793 177.007 198.304 179.654 191.083 184.615C183.863 189.575 178.235 196.625 174.911 204.874C171.588 213.123 170.718 222.199 172.413 230.956C174.107 239.713 178.289 247.757 184.43 254.07C190.57 260.383 198.394 264.683 206.912 266.425C215.429 268.167 224.258 267.273 232.281 263.856C240.304 260.439 247.162 254.653 251.986 247.229C256.811 239.806 259.386 231.078 259.386 222.149C259.386 216.221 258.251 210.351 256.044 204.874C253.837 199.397 250.603 194.42 246.526 190.229C242.448 186.037 237.608 182.712 232.281 180.443C226.954 178.174 221.244 177.007 215.478 177.007ZM223.353 223.234V244.609H207.831V223.234C205.683 221.562 204.1 219.239 203.305 216.593C202.51 213.946 202.544 211.11 203.402 208.484C204.259 205.859 205.897 203.576 208.085 201.959C210.272 200.343 212.898 199.473 215.592 199.473C218.286 199.473 220.912 200.343 223.099 201.959C225.286 203.576 226.924 205.859 227.782 208.484C228.639 211.11 228.673 213.946 227.878 216.593C227.084 219.239 225.501 221.562 223.353 223.234Z" fill="#FFE34D"/>
<path opacity="0.05" d="M215.478 177.007C206.793 177.007 198.304 179.654 191.083 184.615C183.863 189.575 178.235 196.625 174.911 204.874C171.588 213.123 170.718 222.199 172.413 230.956C174.107 239.713 178.289 247.757 184.43 254.07C190.57 260.383 198.394 264.683 206.912 266.425C215.429 268.167 224.258 267.273 232.281 263.856C240.304 260.439 247.162 254.653 251.986 247.229C256.811 239.806 259.386 231.078 259.386 222.149C259.386 216.221 258.251 210.351 256.044 204.874C253.837 199.397 250.603 194.42 246.526 190.229C242.448 186.037 237.608 182.712 232.281 180.443C226.954 178.174 221.244 177.007 215.478 177.007ZM223.353 223.234V244.609H207.831V223.234C205.683 221.562 204.1 219.239 203.305 216.593C202.51 213.946 202.544 211.11 203.402 208.484C204.259 205.859 205.897 203.576 208.085 201.959C210.272 200.343 212.898 199.473 215.592 199.473C218.286 199.473 220.912 200.343 223.099 201.959C225.286 203.576 226.924 205.859 227.782 208.484C228.639 211.11 228.673 213.946 227.878 216.593C227.084 219.239 225.501 221.562 223.353 223.234Z" fill="black"/>
<path d="M215.477 164.109C204.312 164.109 193.397 167.513 184.113 173.89C174.829 180.268 167.594 189.333 163.321 199.938C159.048 210.544 157.93 222.214 160.108 233.473C162.287 244.731 167.663 255.073 175.558 263.19C183.454 271.308 193.513 276.835 204.464 279.075C215.415 281.314 226.766 280.165 237.082 275.772C247.397 271.379 256.214 263.94 262.417 254.395C268.621 244.85 271.932 233.629 271.932 222.149C271.932 206.756 265.984 191.993 255.397 181.108C244.809 170.224 230.45 164.109 215.477 164.109ZM225.599 223.545V251.023H205.641V223.545C202.878 221.395 200.842 218.408 199.819 215.004C198.797 211.601 198.84 207.953 199.943 204.576C201.046 201.199 203.152 198.264 205.965 196.184C208.778 194.104 212.155 192.986 215.62 192.986C219.085 192.986 222.462 194.104 225.275 196.184C228.088 198.264 230.194 201.199 231.297 204.576C232.4 207.953 232.443 211.601 231.421 215.004C230.398 218.408 228.362 221.395 225.599 223.545Z" fill="#FFE34D"/>
<path d="M477.789 214.534H295.312V234.467H477.789V214.534Z" fill="white"/>
<path d="M477.789 250.882H438.443V270.816H477.789V250.882Z" fill="#FFE34D"/>
<path d="M313.274 224.201H309.973L312.909 221.188C312.962 221.132 312.991 221.058 312.991 220.98C312.991 220.902 312.962 220.827 312.909 220.772C312.883 220.744 312.851 220.722 312.817 220.708C312.782 220.693 312.745 220.685 312.707 220.685C312.669 220.685 312.632 220.693 312.597 220.708C312.563 220.722 312.531 220.744 312.504 220.772L309.568 223.791V220.391C309.568 220.313 309.538 220.238 309.484 220.183C309.431 220.128 309.358 220.097 309.283 220.097C309.207 220.099 309.136 220.13 309.083 220.185C309.029 220.24 308.999 220.313 308.998 220.391V223.791L306.066 220.754C306.04 220.727 306.008 220.705 305.974 220.69C305.939 220.675 305.902 220.667 305.864 220.667C305.826 220.667 305.789 220.675 305.754 220.69C305.72 220.705 305.688 220.727 305.662 220.754C305.609 220.81 305.58 220.885 305.58 220.962C305.58 221.04 305.609 221.115 305.662 221.17L308.598 224.184H305.291C305.216 224.185 305.144 224.217 305.091 224.271C305.038 224.326 305.007 224.4 305.006 224.477C305.006 224.555 305.036 224.629 305.089 224.684C305.143 224.739 305.215 224.77 305.291 224.77H308.598L305.662 227.789C305.609 227.845 305.58 227.92 305.58 227.997C305.58 228.075 305.609 228.15 305.662 228.206C305.717 228.258 305.789 228.288 305.864 228.288C305.939 228.288 306.012 228.258 306.066 228.206L308.998 225.186V228.581C308.998 228.659 309.028 228.733 309.081 228.788C309.135 228.843 309.207 228.874 309.283 228.874C309.358 228.874 309.431 228.843 309.484 228.788C309.538 228.733 309.568 228.659 309.568 228.581V225.186L312.504 228.206C312.559 228.258 312.632 228.288 312.707 228.288C312.782 228.288 312.854 228.258 312.909 228.206C312.962 228.15 312.991 228.075 312.991 227.997C312.991 227.92 312.962 227.845 312.909 227.789L309.973 224.77H313.274C313.35 224.77 313.422 224.739 313.476 224.684C313.529 224.629 313.559 224.555 313.559 224.477C313.555 224.402 313.523 224.332 313.47 224.281C313.417 224.23 313.347 224.201 313.274 224.201Z" fill="#FFE34D"/>
<path d="M325.249 224.201H321.948L324.884 221.188C324.937 221.132 324.966 221.058 324.966 220.98C324.966 220.902 324.937 220.827 324.884 220.772C324.858 220.744 324.826 220.722 324.792 220.708C324.757 220.693 324.72 220.685 324.682 220.685C324.644 220.685 324.607 220.693 324.572 220.708C324.538 220.722 324.506 220.744 324.48 220.772L321.543 223.791V220.391C321.543 220.313 321.513 220.238 321.459 220.183C321.406 220.128 321.333 220.097 321.258 220.097C321.183 220.099 321.111 220.13 321.058 220.185C321.005 220.24 320.974 220.313 320.973 220.391V223.791L318.042 220.754C318.015 220.727 317.984 220.705 317.949 220.69C317.914 220.675 317.877 220.667 317.839 220.667C317.801 220.667 317.764 220.675 317.729 220.69C317.695 220.705 317.663 220.727 317.637 220.754C317.584 220.81 317.555 220.885 317.555 220.962C317.555 221.04 317.584 221.115 317.637 221.17L320.573 224.184H317.266C317.191 224.185 317.119 224.217 317.066 224.271C317.013 224.326 316.982 224.4 316.981 224.477C316.981 224.555 317.011 224.629 317.064 224.684C317.118 224.739 317.19 224.77 317.266 224.77H320.573L317.637 227.789C317.584 227.845 317.555 227.92 317.555 227.997C317.555 228.075 317.584 228.15 317.637 228.206C317.692 228.258 317.764 228.288 317.839 228.288C317.914 228.288 317.987 228.258 318.042 228.206L320.973 225.186V228.581C320.973 228.659 321.003 228.733 321.056 228.788C321.11 228.843 321.182 228.874 321.258 228.874C321.333 228.874 321.406 228.843 321.459 228.788C321.513 228.733 321.543 228.659 321.543 228.581V225.186L324.48 228.206C324.534 228.258 324.607 228.288 324.682 228.288C324.757 228.288 324.83 228.258 324.884 228.206C324.937 228.15 324.966 228.075 324.966 227.997C324.966 227.92 324.937 227.845 324.884 227.789L321.948 224.77H325.249C325.325 224.77 325.398 224.739 325.451 224.684C325.504 224.629 325.535 224.555 325.535 224.477C325.53 224.402 325.498 224.332 325.445 224.281C325.392 224.23 325.322 224.201 325.249 224.201Z" fill="#FFE34D"/>
<path d="M337.224 224.201H333.923L336.859 221.188C336.912 221.132 336.941 221.058 336.941 220.98C336.941 220.902 336.912 220.827 336.859 220.772C336.833 220.744 336.801 220.722 336.767 220.708C336.732 220.693 336.695 220.685 336.657 220.685C336.619 220.685 336.582 220.693 336.547 220.708C336.513 220.722 336.481 220.744 336.455 220.772L333.518 223.791V220.391C333.518 220.313 333.488 220.238 333.434 220.183C333.381 220.128 333.308 220.097 333.233 220.097C333.158 220.099 333.086 220.13 333.033 220.185C332.98 220.24 332.949 220.313 332.948 220.391V223.791L330.017 220.754C329.99 220.727 329.959 220.705 329.924 220.69C329.889 220.675 329.852 220.667 329.814 220.667C329.776 220.667 329.739 220.675 329.704 220.69C329.67 220.705 329.638 220.727 329.612 220.754C329.559 220.81 329.53 220.885 329.53 220.962C329.53 221.04 329.559 221.115 329.612 221.17L332.548 224.184H329.241C329.166 224.185 329.094 224.217 329.041 224.271C328.988 224.326 328.957 224.4 328.956 224.477C328.956 224.555 328.986 224.629 329.039 224.684C329.093 224.739 329.165 224.77 329.241 224.77H332.548L329.612 227.789C329.559 227.845 329.53 227.92 329.53 227.997C329.53 228.075 329.559 228.15 329.612 228.206C329.667 228.258 329.739 228.288 329.814 228.288C329.889 228.288 329.962 228.258 330.017 228.206L332.948 225.186V228.581C332.948 228.659 332.978 228.733 333.031 228.788C333.085 228.843 333.157 228.874 333.233 228.874C333.308 228.874 333.381 228.843 333.434 228.788C333.488 228.733 333.518 228.659 333.518 228.581V225.186L336.455 228.206C336.51 228.258 336.582 228.288 336.657 228.288C336.732 228.288 336.805 228.258 336.859 228.206C336.912 228.15 336.941 228.075 336.941 227.997C336.941 227.92 336.912 227.845 336.859 227.789L333.923 224.77H337.224C337.3 224.77 337.373 224.739 337.426 224.684C337.48 224.629 337.51 224.555 337.51 224.477C337.505 224.402 337.473 224.332 337.42 224.281C337.367 224.23 337.297 224.201 337.224 224.201Z" fill="#FFE34D"/>
<path d="M349.199 224.201H345.898L348.834 221.188C348.887 221.132 348.916 221.058 348.916 220.98C348.916 220.902 348.887 220.827 348.834 220.772C348.808 220.744 348.776 220.722 348.742 220.708C348.707 220.693 348.67 220.685 348.632 220.685C348.594 220.685 348.557 220.693 348.522 220.708C348.488 220.722 348.456 220.744 348.43 220.772L345.493 223.791V220.391C345.493 220.313 345.463 220.238 345.409 220.183C345.356 220.128 345.283 220.097 345.208 220.097C345.133 220.099 345.061 220.13 345.008 220.185C344.955 220.24 344.924 220.313 344.923 220.391V223.791L341.992 220.754C341.965 220.727 341.934 220.705 341.899 220.69C341.864 220.675 341.827 220.667 341.789 220.667C341.751 220.667 341.714 220.675 341.679 220.69C341.645 220.705 341.613 220.727 341.587 220.754C341.534 220.81 341.505 220.885 341.505 220.962C341.505 221.04 341.534 221.115 341.587 221.17L344.523 224.184H341.216C341.141 224.185 341.069 224.217 341.016 224.271C340.963 224.326 340.932 224.4 340.931 224.477C340.931 224.555 340.961 224.629 341.014 224.684C341.068 224.739 341.14 224.77 341.216 224.77H344.523L341.587 227.789C341.534 227.845 341.505 227.92 341.505 227.997C341.505 228.075 341.534 228.15 341.587 228.206C341.642 228.258 341.714 228.288 341.789 228.288C341.864 228.288 341.937 228.258 341.992 228.206L344.923 225.186V228.581C344.923 228.659 344.953 228.733 345.006 228.788C345.06 228.843 345.132 228.874 345.208 228.874C345.283 228.874 345.356 228.843 345.409 228.788C345.463 228.733 345.493 228.659 345.493 228.581V225.186L348.43 228.206C348.485 228.258 348.557 228.288 348.632 228.288C348.707 228.288 348.78 228.258 348.834 228.206C348.887 228.15 348.916 228.075 348.916 227.997C348.916 227.92 348.887 227.845 348.834 227.789L345.898 224.77H349.199C349.275 224.77 349.348 224.739 349.401 224.684C349.454 224.629 349.485 224.555 349.485 224.477C349.48 224.402 349.448 224.332 349.395 224.281C349.342 224.23 349.272 224.201 349.199 224.201Z" fill="#FFE34D"/>
<path d="M361.175 224.201H357.873L360.81 221.188C360.862 221.132 360.892 221.058 360.892 220.98C360.892 220.902 360.862 220.827 360.81 220.772C360.783 220.744 360.752 220.722 360.717 220.708C360.682 220.693 360.645 220.685 360.607 220.685C360.57 220.685 360.532 220.693 360.498 220.708C360.463 220.722 360.431 220.744 360.405 220.772L357.468 223.791V220.391C357.468 220.313 357.438 220.238 357.385 220.183C357.331 220.128 357.259 220.097 357.183 220.097C357.108 220.099 357.036 220.13 356.983 220.185C356.93 220.24 356.899 220.313 356.898 220.391V223.791L353.967 220.754C353.94 220.727 353.909 220.705 353.874 220.69C353.839 220.675 353.802 220.667 353.764 220.667C353.727 220.667 353.689 220.675 353.655 220.69C353.62 220.705 353.588 220.727 353.562 220.754C353.509 220.81 353.48 220.885 353.48 220.962C353.48 221.04 353.509 221.115 353.562 221.17L356.499 224.184H353.191C353.116 224.185 353.044 224.217 352.991 224.271C352.938 224.326 352.908 224.4 352.906 224.477C352.906 224.555 352.936 224.629 352.99 224.684C353.043 224.739 353.116 224.77 353.191 224.77H356.499L353.562 227.789C353.509 227.845 353.48 227.92 353.48 227.997C353.48 228.075 353.509 228.15 353.562 228.206C353.617 228.258 353.689 228.288 353.764 228.288C353.839 228.288 353.912 228.258 353.967 228.206L356.898 225.186V228.581C356.898 228.659 356.928 228.733 356.981 228.788C357.035 228.843 357.107 228.874 357.183 228.874C357.259 228.874 357.331 228.843 357.385 228.788C357.438 228.733 357.468 228.659 357.468 228.581V225.186L360.405 228.206C360.46 228.258 360.532 228.288 360.607 228.288C360.682 228.288 360.755 228.258 360.81 228.206C360.862 228.15 360.892 228.075 360.892 227.997C360.892 227.92 360.862 227.845 360.81 227.789L357.873 224.77H361.175C361.25 224.77 361.323 224.739 361.376 224.684C361.43 224.629 361.46 224.555 361.46 224.477C361.455 224.402 361.423 224.332 361.37 224.281C361.317 224.23 361.247 224.201 361.175 224.201Z" fill="#FFE34D"/>
<path d="M373.15 224.201H369.848L372.785 221.188C372.837 221.132 372.867 221.058 372.867 220.98C372.867 220.902 372.837 220.827 372.785 220.772C372.758 220.744 372.727 220.722 372.692 220.708C372.657 220.693 372.62 220.685 372.582 220.685C372.545 220.685 372.507 220.693 372.473 220.708C372.438 220.722 372.406 220.744 372.38 220.772L369.443 223.791V220.391C369.443 220.313 369.413 220.238 369.36 220.183C369.306 220.128 369.234 220.097 369.158 220.097C369.083 220.099 369.011 220.13 368.958 220.185C368.905 220.24 368.874 220.313 368.873 220.391V223.791L365.942 220.754C365.915 220.727 365.884 220.705 365.849 220.69C365.814 220.675 365.777 220.667 365.739 220.667C365.702 220.667 365.665 220.675 365.63 220.69C365.595 220.705 365.563 220.727 365.537 220.754C365.484 220.81 365.455 220.885 365.455 220.962C365.455 221.04 365.484 221.115 365.537 221.17L368.474 224.184H365.166C365.091 224.185 365.019 224.217 364.966 224.271C364.913 224.326 364.883 224.4 364.881 224.477C364.881 224.555 364.911 224.629 364.965 224.684C365.018 224.739 365.091 224.77 365.166 224.77H368.474L365.537 227.789C365.484 227.845 365.455 227.92 365.455 227.997C365.455 228.075 365.484 228.15 365.537 228.206C365.592 228.258 365.664 228.288 365.739 228.288C365.815 228.288 365.887 228.258 365.942 228.206L368.873 225.186V228.581C368.873 228.659 368.903 228.733 368.956 228.788C369.01 228.843 369.082 228.874 369.158 228.874C369.234 228.874 369.306 228.843 369.36 228.788C369.413 228.733 369.443 228.659 369.443 228.581V225.186L372.38 228.206C372.435 228.258 372.507 228.288 372.582 228.288C372.657 228.288 372.73 228.258 372.785 228.206C372.837 228.15 372.867 228.075 372.867 227.997C372.867 227.92 372.837 227.845 372.785 227.789L369.848 224.77H373.15C373.225 224.77 373.298 224.739 373.351 224.684C373.405 224.629 373.435 224.555 373.435 224.477C373.431 224.402 373.399 224.332 373.346 224.281C373.293 224.23 373.222 224.201 373.15 224.201Z" fill="#FFE34D"/>
<path d="M385.125 224.201H381.823L384.76 221.188C384.813 221.132 384.842 221.058 384.842 220.98C384.842 220.902 384.813 220.827 384.76 220.772C384.734 220.744 384.702 220.722 384.667 220.708C384.632 220.693 384.595 220.685 384.558 220.685C384.52 220.685 384.483 220.693 384.448 220.708C384.413 220.722 384.382 220.744 384.355 220.772L381.418 223.791V220.391C381.418 220.313 381.388 220.238 381.335 220.183C381.281 220.128 381.209 220.097 381.133 220.097C381.058 220.099 380.986 220.13 380.933 220.185C380.88 220.24 380.85 220.313 380.848 220.391V223.791L377.917 220.754C377.891 220.727 377.859 220.705 377.824 220.69C377.79 220.675 377.752 220.667 377.715 220.667C377.677 220.667 377.64 220.675 377.605 220.69C377.57 220.705 377.539 220.727 377.512 220.754C377.46 220.81 377.43 220.885 377.43 220.962C377.43 221.04 377.46 221.115 377.512 221.17L380.449 224.184H377.142C377.066 224.185 376.995 224.217 376.942 224.271C376.888 224.326 376.858 224.4 376.856 224.477C376.856 224.555 376.886 224.629 376.94 224.684C376.993 224.739 377.066 224.77 377.142 224.77H380.449L377.512 227.789C377.46 227.845 377.43 227.92 377.43 227.997C377.43 228.075 377.46 228.15 377.512 228.206C377.567 228.258 377.639 228.288 377.715 228.288C377.79 228.288 377.862 228.258 377.917 228.206L380.848 225.186V228.581C380.848 228.659 380.878 228.733 380.932 228.788C380.985 228.843 381.058 228.874 381.133 228.874C381.209 228.874 381.281 228.843 381.335 228.788C381.388 228.733 381.418 228.659 381.418 228.581V225.186L384.355 228.206C384.41 228.258 384.482 228.288 384.558 228.288C384.633 228.288 384.705 228.258 384.76 228.206C384.813 228.15 384.842 228.075 384.842 227.997C384.842 227.92 384.813 227.845 384.76 227.789L381.823 224.77H385.125C385.201 224.77 385.273 224.739 385.327 224.684C385.38 224.629 385.41 224.555 385.41 224.477C385.406 224.402 385.374 224.332 385.321 224.281C385.268 224.23 385.198 224.201 385.125 224.201Z" fill="#FFE34D"/>
<path d="M397.1 224.201H393.798L396.735 221.188C396.788 221.132 396.817 221.058 396.817 220.98C396.817 220.902 396.788 220.827 396.735 220.772C396.708 220.744 396.677 220.722 396.642 220.708C396.607 220.693 396.57 220.685 396.532 220.685C396.495 220.685 396.458 220.693 396.423 220.708C396.388 220.722 396.357 220.744 396.33 220.772L393.393 223.791V220.391C393.393 220.313 393.363 220.238 393.31 220.183C393.256 220.128 393.184 220.097 393.108 220.097C393.033 220.099 392.961 220.13 392.908 220.185C392.855 220.24 392.825 220.313 392.823 220.391V223.791L389.892 220.754C389.866 220.727 389.834 220.705 389.799 220.69C389.765 220.675 389.727 220.667 389.69 220.667C389.652 220.667 389.615 220.675 389.58 220.69C389.545 220.705 389.514 220.727 389.487 220.754C389.435 220.81 389.405 220.885 389.405 220.962C389.405 221.04 389.435 221.115 389.487 221.17L392.424 224.184H389.117C389.041 224.185 388.97 224.217 388.917 224.271C388.863 224.326 388.833 224.4 388.831 224.477C388.831 224.555 388.861 224.629 388.915 224.684C388.968 224.739 389.041 224.77 389.117 224.77H392.424L389.487 227.789C389.435 227.845 389.405 227.92 389.405 227.997C389.405 228.075 389.435 228.15 389.487 228.206C389.542 228.258 389.614 228.288 389.69 228.288C389.765 228.288 389.837 228.258 389.892 228.206L392.823 225.186V228.581C392.823 228.659 392.853 228.733 392.907 228.788C392.96 228.843 393.033 228.874 393.108 228.874C393.184 228.874 393.256 228.843 393.31 228.788C393.363 228.733 393.393 228.659 393.393 228.581V225.186L396.33 228.206C396.385 228.258 396.457 228.288 396.532 228.288C396.608 228.288 396.68 228.258 396.735 228.206C396.788 228.15 396.817 228.075 396.817 227.997C396.817 227.92 396.788 227.845 396.735 227.789L393.798 224.77H397.1C397.176 224.77 397.248 224.739 397.302 224.684C397.355 224.629 397.385 224.555 397.385 224.477C397.381 224.402 397.349 224.332 397.296 224.281C397.243 224.23 397.173 224.201 397.1 224.201Z" fill="#FFE34D"/>
<path d="M409.075 224.201H405.773L408.71 221.188C408.763 221.132 408.792 221.058 408.792 220.98C408.792 220.902 408.763 220.827 408.71 220.772C408.684 220.744 408.652 220.722 408.617 220.708C408.583 220.693 408.545 220.685 408.508 220.685C408.47 220.685 408.433 220.693 408.398 220.708C408.363 220.722 408.332 220.744 408.305 220.772L405.368 223.791V220.391C405.368 220.313 405.338 220.238 405.285 220.183C405.231 220.128 405.159 220.097 405.083 220.097C405.008 220.099 404.936 220.13 404.883 220.185C404.83 220.24 404.8 220.313 404.798 220.391V223.791L401.867 220.754C401.841 220.727 401.809 220.705 401.774 220.69C401.74 220.675 401.702 220.667 401.665 220.667C401.627 220.667 401.59 220.675 401.555 220.69C401.52 220.705 401.489 220.727 401.462 220.754C401.41 220.81 401.38 220.885 401.38 220.962C401.38 221.04 401.41 221.115 401.462 221.17L404.399 224.184H401.092C401.016 224.185 400.945 224.217 400.892 224.271C400.838 224.326 400.808 224.4 400.807 224.477C400.807 224.555 400.837 224.629 400.89 224.684C400.943 224.739 401.016 224.77 401.092 224.77H404.399L401.462 227.789C401.41 227.845 401.38 227.92 401.38 227.997C401.38 228.075 401.41 228.15 401.462 228.206C401.517 228.258 401.59 228.288 401.665 228.288C401.74 228.288 401.812 228.258 401.867 228.206L404.798 225.186V228.581C404.798 228.659 404.828 228.733 404.882 228.788C404.935 228.843 405.008 228.874 405.083 228.874C405.159 228.874 405.231 228.843 405.285 228.788C405.338 228.733 405.368 228.659 405.368 228.581V225.186L408.305 228.206C408.36 228.258 408.432 228.288 408.508 228.288C408.583 228.288 408.655 228.258 408.71 228.206C408.763 228.15 408.792 228.075 408.792 227.997C408.792 227.92 408.763 227.845 408.71 227.789L405.773 224.77H409.075C409.151 224.77 409.223 224.739 409.277 224.684C409.33 224.629 409.36 224.555 409.36 224.477C409.356 224.402 409.324 224.332 409.271 224.281C409.218 224.23 409.148 224.201 409.075 224.201Z" fill="#FFE34D"/>
<path d="M421.05 224.201H417.748L420.685 221.188C420.738 221.132 420.767 221.058 420.767 220.98C420.767 220.902 420.738 220.827 420.685 220.772C420.659 220.744 420.627 220.722 420.592 220.708C420.558 220.693 420.52 220.685 420.483 220.685C420.445 220.685 420.408 220.693 420.373 220.708C420.338 220.722 420.307 220.744 420.28 220.772L417.344 223.791V220.391C417.344 220.313 417.314 220.238 417.26 220.183C417.207 220.128 417.134 220.097 417.058 220.097C416.983 220.099 416.912 220.13 416.858 220.185C416.805 220.24 416.775 220.313 416.773 220.391V223.791L413.842 220.754C413.816 220.727 413.784 220.705 413.749 220.69C413.715 220.675 413.677 220.667 413.64 220.667C413.602 220.667 413.565 220.675 413.53 220.69C413.495 220.705 413.464 220.727 413.437 220.754C413.385 220.81 413.355 220.885 413.355 220.962C413.355 221.04 413.385 221.115 413.437 221.17L416.374 224.184H413.067C412.992 224.185 412.92 224.217 412.867 224.271C412.814 224.326 412.783 224.4 412.782 224.477C412.782 224.555 412.812 224.629 412.865 224.684C412.919 224.739 412.991 224.77 413.067 224.77H416.374L413.437 227.789C413.385 227.845 413.355 227.92 413.355 227.997C413.355 228.075 413.385 228.15 413.437 228.206C413.492 228.258 413.565 228.288 413.64 228.288C413.715 228.288 413.787 228.258 413.842 228.206L416.773 225.186V228.581C416.773 228.659 416.803 228.733 416.857 228.788C416.91 228.843 416.983 228.874 417.058 228.874C417.134 228.874 417.207 228.843 417.26 228.788C417.314 228.733 417.344 228.659 417.344 228.581V225.186L420.28 228.206C420.335 228.258 420.408 228.288 420.483 228.288C420.558 228.288 420.63 228.258 420.685 228.206C420.738 228.15 420.767 228.075 420.767 227.997C420.767 227.92 420.738 227.845 420.685 227.789L417.748 224.77H421.05C421.126 224.77 421.198 224.739 421.252 224.684C421.305 224.629 421.335 224.555 421.335 224.477C421.331 224.402 421.299 224.332 421.246 224.281C421.193 224.23 421.123 224.201 421.05 224.201Z" fill="#FFE34D"/>
<path d="M433.025 224.201H429.724L432.66 221.188C432.713 221.132 432.742 221.058 432.742 220.98C432.742 220.902 432.713 220.827 432.66 220.772C432.634 220.744 432.602 220.722 432.567 220.708C432.533 220.693 432.495 220.685 432.458 220.685C432.42 220.685 432.383 220.693 432.348 220.708C432.313 220.722 432.282 220.744 432.255 220.772L429.319 223.791V220.391C429.319 220.313 429.289 220.238 429.235 220.183C429.182 220.128 429.109 220.097 429.034 220.097C428.958 220.099 428.887 220.13 428.834 220.185C428.78 220.24 428.75 220.313 428.748 220.391V223.791L425.817 220.754C425.791 220.727 425.759 220.705 425.725 220.69C425.69 220.675 425.653 220.667 425.615 220.667C425.577 220.667 425.54 220.675 425.505 220.69C425.471 220.705 425.439 220.727 425.412 220.754C425.36 220.81 425.33 220.885 425.33 220.962C425.33 221.04 425.36 221.115 425.412 221.17L428.349 224.184H425.042C424.967 224.185 424.895 224.217 424.842 224.271C424.789 224.326 424.758 224.4 424.757 224.477C424.757 224.555 424.787 224.629 424.84 224.684C424.894 224.739 424.966 224.77 425.042 224.77H428.349L425.412 227.789C425.36 227.845 425.33 227.92 425.33 227.997C425.33 228.075 425.36 228.15 425.412 228.206C425.467 228.258 425.54 228.288 425.615 228.288C425.69 228.288 425.762 228.258 425.817 228.206L428.748 225.186V228.581C428.748 228.659 428.778 228.733 428.832 228.788C428.885 228.843 428.958 228.874 429.034 228.874C429.109 228.874 429.182 228.843 429.235 228.788C429.289 228.733 429.319 228.659 429.319 228.581V225.186L432.255 228.206C432.31 228.258 432.383 228.288 432.458 228.288C432.533 228.288 432.605 228.258 432.66 228.206C432.713 228.15 432.742 228.075 432.742 227.997C432.742 227.92 432.713 227.845 432.66 227.789L429.724 224.77H433.025C433.101 224.77 433.173 224.739 433.227 224.684C433.28 224.629 433.31 224.555 433.31 224.477C433.306 224.402 433.274 224.332 433.221 224.281C433.168 224.23 433.098 224.201 433.025 224.201Z" fill="#FFE34D"/>
<path d="M524.829 295.521C524.812 294.812 524.726 294.107 524.572 293.416C524.059 291.435 522.901 289.037 520.997 288.439C519.03 287.82 517.131 286.995 515.328 285.977C514.986 279.692 516.389 273.26 514.861 267.169C514.291 264.941 513.35 262.807 513.099 260.527C512.785 257.689 513.538 254.664 512.437 252.049C511.57 249.985 509.666 248.531 507.619 247.769C505.572 247.007 503.365 246.802 501.192 246.597C498.455 246.368 489.593 245.289 486.503 247.805C486.289 247.975 486.098 248.172 485.932 248.391C485.864 248.487 485.803 248.589 485.75 248.696L485.721 248.743C485.659 248.865 485.608 248.992 485.567 249.124C485.524 249.267 485.492 249.414 485.471 249.563C485.471 249.61 485.471 249.657 485.471 249.704C485.471 249.751 485.471 249.909 485.471 250.015V250.173C485.471 250.279 485.471 250.384 485.471 250.495C485.471 250.607 485.471 250.578 485.471 250.619C485.51 251.146 485.585 251.674 485.585 252.196C485.591 252.455 485.568 252.715 485.516 252.97C485.326 253.661 485.004 254.307 484.57 254.869L484.467 255.021C484.404 255.115 484.341 255.203 484.284 255.297C484.227 255.391 484.182 255.461 484.136 255.543C484.091 255.625 484.045 255.678 484.005 255.754C483.95 255.851 483.9 255.951 483.857 256.053C483.857 256.112 483.794 256.165 483.771 256.223C483.7 256.382 483.643 256.547 483.6 256.716C483.467 257.225 483.455 257.76 483.566 258.275C483.72 258.933 483.984 259.558 484.347 260.122C484.49 260.362 484.644 260.597 484.803 260.831L485.203 261.388C485.128 261.932 485.088 262.481 485.083 263.03C485.083 264.866 485.489 266.678 486.269 268.329C487.049 269.98 488.184 271.428 489.588 272.563C489.814 275.039 489.789 277.532 489.514 280.002C489.462 280.518 489.399 281.04 489.331 281.556C489.263 282.072 489.211 282.412 489.143 282.84C488.308 282.963 487.458 282.897 486.651 282.647C486.279 282.476 485.898 282.325 485.51 282.195C483.851 281.767 482.157 283.467 480.515 282.951C480.515 283.033 480.469 283.11 480.441 283.186C480.098 282.967 479.704 282.847 479.3 282.84C478.325 282.793 477.533 282.066 476.826 281.38L474.653 279.275C474.511 279.147 474.385 279.001 474.277 278.842C474.16 278.614 474.072 278.371 474.014 278.121C473.649 276.907 472.765 275.94 471.91 275.019C471.748 274.809 471.533 274.649 471.289 274.556C471.194 274.541 471.098 274.541 471.003 274.556C470.945 274.474 470.882 274.396 470.815 274.321C470.668 274.147 470.51 273.983 470.342 273.829C469.304 272.844 469.202 272 468.301 270.898C467.515 269.847 466.802 268.74 466.168 267.585C466.094 266.97 465.991 266.337 465.866 265.697C465.578 264.234 465.16 262.802 464.617 261.418L463.476 258.821L463.345 258.955C462.518 257.689 461.634 256.997 460.842 257.161C459.513 257.443 458.857 260.093 459.068 263.558L459.524 267.075C459.524 267.163 459.564 267.251 459.587 267.339C459.505 267.756 459.463 268.18 459.462 268.605C459.462 269.098 459.907 269.461 460.14 269.901C460.515 270.497 460.713 271.191 460.711 271.9C460.682 272.152 460.608 272.393 460.597 272.639C460.628 273.19 460.814 273.719 461.133 274.163L463.984 279.088L464.554 280.12L464.588 280.167C464.768 280.527 465.03 280.836 465.352 281.069C465.464 282.303 465.782 283.507 466.293 284.628C466.39 284.851 466.499 285.062 466.613 285.273C467.379 286.569 468.282 287.774 469.304 288.867L470.661 290.432C472.001 291.968 473.341 293.51 474.796 294.929C475.316 295.498 475.945 295.951 476.643 296.26C476.985 296.4 477.357 296.446 477.722 296.391C478.086 296.336 478.43 296.184 478.719 295.949C478.719 296.676 478.719 297.403 478.719 298.13C478.931 298.143 479.135 298.215 479.311 298.336C479.487 298.458 479.628 298.626 479.72 298.822C479.812 299.019 479.851 299.237 479.833 299.455C479.816 299.672 479.742 299.88 479.62 300.059C478.422 303.219 477.213 306.408 475.4 309.24C476.68 310.019 477.867 310.949 478.936 312.013C479.629 312.803 480.246 313.661 480.777 314.575C480.829 315.009 480.869 315.437 480.891 315.865C481.313 322.853 478.685 329.788 476.33 336.449C475.651 338.336 474.91 340.312 474.967 342.276C474.52 342.559 474.093 342.875 473.689 343.22C474.157 344.475 473.974 345.594 473.923 346.937C473.906 347.742 473.746 348.537 473.45 349.282C473.202 349.799 472.928 350.302 472.629 350.789C471.152 353.468 470.827 356.651 470.53 359.712C470.353 361.558 471.049 363.816 470.234 365.469C468.825 368.306 467.576 371.332 467.382 374.486C467.376 375.195 467.288 375.902 467.12 376.59C466.943 377.177 466.63 377.675 466.47 378.25C466.306 379.019 466.267 379.812 466.356 380.595C466.464 383.405 466.058 386.211 465.158 388.867C464.446 390.96 463.659 393.199 464.218 395.351C462.842 396.837 461.992 398.755 461.805 400.797C461.791 401.32 461.73 401.84 461.623 402.351C461.449 402.874 461.219 403.375 460.939 403.846C459.791 405.995 459.253 408.433 459.388 410.881C457.677 413.267 456.822 416.211 456.314 419.136C455.807 422.061 455.584 425.04 454.934 427.93C454.067 431.753 452.499 435.616 452.191 439.532C450.344 440.746 449.545 443.097 449.192 445.319C448.838 447.541 448.781 449.874 447.874 451.926C447.407 452.993 446.734 453.949 446.289 455.039C445.977 455.907 445.748 456.805 445.605 457.718C445.331 459.149 445.092 460.744 445.428 462.115C444.944 462.642 444.38 463.084 443.757 463.423C443.849 463.059 443.923 462.696 443.985 462.326C442.514 463.698 439.845 463.218 438.671 464.865C438.318 465.396 438.18 466.047 438.287 466.681C438.393 467.315 438.735 467.881 439.241 468.26C439.609 468.49 440.006 468.666 440.421 468.781C443.273 469.719 446.204 470.663 449.135 470.165C449.481 470.126 449.817 470.017 450.121 469.842C450.502 469.554 450.816 469.181 451.039 468.752C451.478 468.037 451.917 467.322 452.351 466.606C453.401 466.929 454.469 467.185 455.55 467.374C455.658 468.312 455.738 469.25 455.778 470.188C456.348 470.306 457.112 470.341 457.38 469.796C457.462 469.589 457.495 469.367 457.477 469.145C457.477 468.729 457.534 468.177 457.569 467.615H457.683C459.422 467.687 461.153 467.327 462.729 466.565C462.119 461.371 464.132 456.294 465.877 451.381C467.719 446.21 469.298 440.945 470.889 435.681C472.03 431.975 473.29 428.387 474.408 424.676C475.814 419.986 477.227 415.296 478.645 410.606C479.261 408.542 479.882 406.502 480.589 404.45C482.078 400.298 483.844 396.257 485.875 392.355C486.446 391.247 487.016 390.151 487.483 389.002C488.054 387.601 488.459 386.135 488.915 384.687C489.909 381.715 491.106 378.82 492.496 376.022C492.536 375.946 492.564 375.875 492.604 375.805C493.066 377.745 493.528 379.715 493.836 381.667C494.253 384.061 494.286 386.509 493.933 388.914C493.659 390.549 493.14 392.168 493.203 393.827C493.289 396.119 494.48 398.2 495.068 400.411C495.446 402.065 495.66 403.754 495.706 405.452C495.866 408.091 497.257 411.051 496.277 413.496C493.226 421.241 494.703 429.988 492.964 438.119C492.068 442.294 489.325 446.216 489.542 450.484C489.694 453.513 489.953 456.534 490.318 459.548C490.405 460.498 490.646 461.428 491.03 462.297C491.258 462.755 491.519 463.194 491.812 463.61C491.561 463.71 491.35 463.974 491.167 464.531C490.7 465.997 491.167 467.814 492.433 468.635C492.949 468.918 493.505 469.116 494.081 469.221C494.856 469.448 495.659 469.562 496.465 469.561C496.716 469.547 496.965 469.516 497.212 469.467C498.093 469.848 498.994 470.181 499.909 470.464C499.909 470.704 499.955 470.945 499.983 471.185C499.985 471.311 500.012 471.435 500.063 471.549C500.114 471.663 500.188 471.765 500.28 471.848C500.422 471.916 500.579 471.944 500.736 471.93H503.832C503.832 471.666 503.832 471.396 503.832 471.132C504.187 471.17 504.545 471.131 504.884 471.018C505.223 470.905 505.535 470.72 505.8 470.476C506.074 470.117 506.269 469.701 506.37 469.256C507.214 466.313 508.052 463.368 508.885 460.421C509.883 457.164 510.298 453.747 510.111 450.337C509.01 439.532 511.428 428.692 510.641 417.858C510.167 411.346 510.493 404.799 511.61 398.37C511.867 396.916 512.181 395.439 512.295 393.991C512.546 391.259 512.238 388.498 512.426 385.783C512.489 384.833 512.614 383.889 512.728 382.946C513.509 377.087 513.919 371.183 513.954 365.27C513.937 363.31 513.819 361.353 513.601 359.407C514.195 359.251 514.735 358.926 515.157 358.469C515.665 357.789 515.534 356.833 515.528 355.965C515.528 353.89 516.378 351.932 517.062 349.974C517.94 347.273 518.66 344.52 519.217 341.731C519.807 339.483 520.128 337.17 520.175 334.842C520.175 334.608 520.164 334.373 520.141 334.139C520.356 333.985 520.535 333.785 520.666 333.552C520.815 333.209 520.907 332.842 520.94 332.468C521.145 330.973 521.356 329.472 521.561 327.971C521.713 326.896 521.863 325.823 522.012 324.752L523.825 311.743C523.979 310.612 524.139 309.486 524.293 308.36L524.766 304.995C524.817 304.596 524.874 304.198 524.914 303.823C526.306 301.431 524.977 298.241 524.829 295.521ZM509.7 344.228C509.027 342.587 508.4 340.904 508.56 339.134H508.497C508.647 338.589 508.621 338.009 508.423 337.48C508.246 337.052 507.938 336.689 507.75 336.261C507.548 335.739 507.443 335.182 507.442 334.619C507.3 331.054 507.574 327.483 508.257 323.984C508.332 323.574 508.411 323.158 508.485 322.747C508.725 322.605 508.943 322.43 509.136 322.226C509.436 321.874 509.683 321.479 509.871 321.053C510.516 319.722 511.103 318.368 511.645 316.99C511.821 316.545 512.078 316.029 512.517 315.917C512.426 319.347 512.768 322.847 511.411 325.943C511.153 326.442 510.961 326.974 510.841 327.525C510.715 328.399 511.069 329.284 510.943 330.152C510.881 330.603 510.692 331.02 510.618 331.465C510.562 331.684 510.563 331.914 510.621 332.132C510.679 332.351 510.792 332.549 510.949 332.708C511.024 332.763 511.107 332.806 511.194 332.837C511.16 333.072 511.131 333.312 511.109 333.541C511.063 334.021 511.04 334.473 511.012 334.754C510.88 336.188 510.829 337.629 510.858 339.069C510.858 340.623 510.915 342.176 510.892 343.759C510.913 344.214 510.839 344.668 510.675 345.09C510.562 345.308 510.416 345.506 510.242 345.676C510.076 345.149 509.894 344.686 509.7 344.228Z" fill="url(#paint0_linear)"/>
<path d="M464.686 276.203C466.427 275.837 467.019 271.433 466.009 266.367C465 261.302 462.77 257.492 461.03 257.859C459.29 258.225 458.698 262.629 459.708 267.695C460.717 272.76 462.946 276.57 464.686 276.203Z" fill="#FBBEBE"/>
<path d="M491.258 464.642C490.791 466.096 491.258 467.914 492.524 468.705C493.037 468.986 493.589 469.184 494.161 469.291C494.935 469.516 495.735 469.629 496.539 469.626C497.525 469.579 498.472 469.18 499.458 469.039C499.572 469.01 499.693 469.027 499.795 469.086C499.844 469.141 499.881 469.206 499.903 469.277C499.925 469.348 499.931 469.423 499.92 469.497C499.931 470.073 499.973 470.649 500.046 471.22C500.047 471.346 500.073 471.47 500.125 471.584C500.176 471.699 500.25 471.8 500.342 471.883C500.485 471.951 500.642 471.979 500.799 471.965H503.889C503.959 469.173 503.662 466.385 503.005 463.675C502.963 463.468 502.885 463.269 502.777 463.089C502.515 462.793 502.17 462.589 501.791 462.502C501.035 462.179 500.219 462.033 499.401 462.074C498.403 462.209 497.571 462.872 496.721 463.423C495.872 463.974 494.714 464.461 493.682 464.179C492.65 463.898 491.789 463.012 491.258 464.642Z" fill="#3F3D56"/>
<path d="M445.878 462.069C445.009 463.025 443.944 463.77 442.759 464.25L442.235 464.507C442.162 464.536 442.1 464.587 442.058 464.654C442.048 464.7 442.048 464.747 442.058 464.793C442.067 464.838 442.087 464.881 442.115 464.918C442.551 465.612 443.196 466.141 443.952 466.423C444.707 466.706 445.532 466.727 446.3 466.483C446.64 466.396 446.955 466.227 447.218 465.991C447.653 465.461 447.902 464.796 447.926 464.103C448.098 463.388 448.069 462.638 447.84 461.94C447.047 460.105 446.757 460.937 445.878 462.069Z" fill="#FBBEBE"/>
<path d="M457.728 469.291C457.746 469.513 457.713 469.736 457.631 469.942C457.363 470.482 456.616 470.452 456.035 470.335C455.946 468.346 455.712 466.366 455.333 464.414C454.227 464.361 453.429 465.44 452.836 466.407L451.307 468.899C451.086 469.328 450.774 469.7 450.395 469.989C450.089 470.161 449.754 470.27 449.408 470.312C446.489 470.81 443.541 469.866 440.724 468.928C440.309 468.813 439.911 468.64 439.543 468.412C439.04 468.033 438.7 467.468 438.594 466.836C438.488 466.204 438.623 465.554 438.973 465.023C440.153 463.382 442.805 463.851 444.276 462.491C444.123 463.448 443.87 464.385 443.523 465.287C445.491 464.982 446.814 463.13 448.399 461.893C448.797 461.545 449.277 461.311 449.79 461.213C450.175 461.179 450.562 461.221 450.931 461.336C452.759 461.809 454.469 462.674 455.949 463.874C456.548 464.361 457.483 465.047 457.745 465.797C458.025 466.694 457.728 468.336 457.728 469.291Z" fill="#3F3D56"/>
<path d="M496.955 275.858C503.462 275.858 508.736 270.435 508.736 263.745C508.736 257.056 503.462 251.633 496.955 251.633C490.449 251.633 485.174 257.056 485.174 263.745C485.174 270.435 490.449 275.858 496.955 275.858Z" fill="#FBBEBE"/>
<path d="M520.164 335.258C520.117 337.574 519.797 339.875 519.212 342.112C518.654 344.89 517.934 347.631 517.056 350.32C516.378 352.272 515.528 354.23 515.534 356.3C515.534 357.161 515.671 358.117 515.157 358.797C514.7 359.274 514.124 359.613 513.492 359.776C513.177 359.862 512.886 360.023 512.642 360.246C512.398 360.469 512.209 360.748 512.089 361.06C511.554 360.238 511.153 359.331 510.903 358.375C509.881 355.154 508.93 351.916 508.052 348.66C507.972 348.473 507.937 348.268 507.951 348.064C507.965 347.86 508.027 347.662 508.132 347.488C508.277 347.359 508.445 347.261 508.628 347.201C509.213 346.956 509.748 346.602 510.208 346.157C510.423 345.96 510.601 345.724 510.732 345.459C510.898 345.039 510.974 344.587 510.955 344.135C510.955 342.581 510.955 341.033 510.915 339.48C510.891 338.045 510.944 336.61 511.074 335.182C511.074 334.901 511.126 334.449 511.171 333.969C511.257 333.048 511.428 331.981 511.913 331.624C512.637 331.125 514.804 331.794 515.625 331.911C517.039 332.11 518.476 332.345 519.856 332.62C520.057 333.485 520.16 334.37 520.164 335.258Z" fill="#3F3D56"/>
<path d="M472.594 277.306C472.138 278.244 471.043 278.695 470.199 279.287L467.308 281.327C467.115 281.506 466.889 281.643 466.643 281.73C466.397 281.817 466.136 281.851 465.877 281.832C465.642 281.742 465.426 281.606 465.243 281.429C465.06 281.253 464.913 281.041 464.811 280.806C464.812 280.79 464.812 280.774 464.811 280.759L464.212 279.727L461.361 274.814C461.044 274.374 460.859 273.848 460.83 273.301C460.83 273.049 460.916 272.815 460.939 272.563C460.946 271.855 460.748 271.16 460.368 270.569C460.14 270.13 459.684 269.766 459.696 269.274C459.674 268.627 459.783 267.982 460.015 267.38C460.314 266.823 460.743 266.352 461.264 266.008C461.532 265.809 461.806 265.621 462.091 265.422C462.242 265.316 462.41 265.236 462.587 265.187C463.06 265.088 463.528 265.492 464.007 265.51C466.065 266.929 466.858 269.614 468.477 271.548C469.39 272.651 469.481 273.495 470.513 274.48C470.678 274.632 470.838 274.796 470.992 274.966C471.196 275.195 471.369 275.452 471.505 275.729C471.693 276.233 472.828 276.825 472.594 277.306Z" fill="#3F3D56"/>
<path d="M492.815 275.863C493.665 277.71 494.326 279.739 494.081 281.767C494.031 282.317 493.861 282.848 493.585 283.321C492.764 284.616 491.042 284.851 489.542 284.927C489.226 284.9 488.908 284.938 488.606 285.038C488.305 285.139 488.026 285.301 487.786 285.513C487.585 285.813 487.487 286.172 487.507 286.535C487.526 286.898 487.663 287.244 487.894 287.518C488.376 288.047 488.974 288.449 489.639 288.691C492.011 289.764 494.572 290.649 497.149 290.403C498.347 290.286 499.51 289.928 500.702 289.746C502.001 289.602 503.307 289.527 504.614 289.524C506.165 289.465 507.71 289.307 509.255 289.148L513.35 288.732C513.573 288.735 513.791 288.654 513.96 288.503C514.262 288.14 513.874 287.606 513.498 287.331C511.325 285.678 508.56 284.54 507.322 282.054C506.752 280.882 506.575 279.487 506.153 278.22C505.731 276.954 505.058 275.811 504.796 274.521C504.656 273.389 504.593 272.249 504.608 271.109C504.622 269.959 504.215 268.845 503.467 267.99C502.652 267.21 501.471 267.011 500.365 266.964C497.639 266.841 494.737 267.509 492.804 269.485C492.285 270.018 491.84 270.657 491.304 271.138C490.768 271.619 490.038 271.76 490.392 272.393C490.745 273.026 491.441 273.419 491.817 273.976C492.198 274.577 492.532 275.208 492.815 275.863Z" fill="#FBBEBE"/>
<path d="M516.041 292.918C515.322 297.432 514.153 301.859 512.551 306.127C511.746 308.054 511.061 310.032 510.498 312.048C510.059 313.865 510.145 315.812 509.74 317.635C509.238 319.904 508.736 322.179 508.332 324.465C507.652 327.957 507.38 331.519 507.522 335.077C507.523 335.637 507.628 336.192 507.83 336.712C508.018 337.134 508.32 337.498 508.497 337.932C508.629 338.313 508.683 338.718 508.656 339.121C508.628 339.525 508.52 339.918 508.337 340.277C508.045 340.948 507.648 341.566 507.163 342.106C501.848 343.736 496.163 343.202 490.625 343.548C485.522 343.865 480.361 344.944 475.332 344.047C474.761 341.701 475.714 339.245 476.529 336.959C478.896 330.316 481.513 323.398 481.091 316.439C481.047 315.627 480.957 314.819 480.823 314.018C479.996 309.087 480.897 303.981 482.34 299.203C483.235 296.225 483.195 293.053 482.99 289.952C482.888 288.944 482.875 287.93 482.95 286.92C483.032 285.89 483.405 284.906 484.022 284.089C484.022 284.048 484.073 284.007 484.102 283.966C484.13 283.925 484.353 283.931 484.53 283.966C484.575 283.985 484.623 283.995 484.672 283.995C484.721 283.995 484.77 283.985 484.815 283.966L484.877 283.925C484.902 283.907 484.93 283.897 484.96 283.897C484.99 283.897 485.019 283.907 485.043 283.925C485.174 284.007 485.248 284.288 485.533 284.341C485.954 284.406 486.379 284.448 486.805 284.464C487.317 284.48 487.826 284.554 488.322 284.687H488.39C489.132 284.815 489.893 284.749 490.603 284.493C491.075 284.372 491.531 284.191 491.96 283.954C492.085 283.813 492.872 283.684 493.032 283.585C493.551 283.262 493.437 281.75 493.545 281.128C493.605 280.505 493.749 279.893 493.973 279.311C494.233 278.881 494.591 278.523 495.016 278.268C495.442 278.014 495.922 277.871 496.413 277.851C497.395 277.827 498.377 277.917 499.339 278.121C501.466 278.431 503.644 278.379 505.731 278.883C506.781 279.135 507.927 279.516 508.89 279.023C509.153 279.088 509.193 279.322 509.193 279.61C509.168 279.883 509.115 280.152 509.033 280.413C508.668 282.031 509.905 283.52 511.046 284.693C511.528 285.245 512.096 285.711 512.728 286.07C513.298 286.34 513.869 286.451 514.439 286.745C514.901 286.998 515.293 287.367 515.579 287.817C515.908 288.334 516.129 288.915 516.229 289.524C516.352 290.658 516.288 291.805 516.041 292.918Z" fill="#3F3D56"/>
<path opacity="0.1" d="M516.041 292.918C515.322 297.432 514.153 301.859 512.551 306.127C511.746 308.054 511.061 310.032 510.498 312.048C510.059 313.865 510.145 315.812 509.74 317.635C509.238 319.904 508.736 322.179 508.331 324.465C508.212 324.536 508.086 324.6 507.961 324.659C507.251 325.007 506.499 325.255 505.725 325.397C504.335 325.57 502.927 325.523 501.551 325.257L493.414 324.137C490.164 323.685 486.702 323.14 484.29 320.877C482.95 319.634 482.072 317.993 481.108 316.41C481.064 315.598 480.974 314.79 480.84 313.989C480.013 309.058 480.914 303.952 482.357 299.173C483.252 296.195 483.212 293.024 483.007 289.922C482.905 288.915 482.892 287.901 482.967 286.891C483.05 285.86 483.422 284.876 484.039 284.059C484.206 284.009 484.375 283.97 484.547 283.942C484.661 283.918 484.778 283.903 484.895 283.895H485.06C485.252 283.896 485.443 283.92 485.63 283.966C486.019 284.093 486.399 284.244 486.771 284.417H486.839C487.328 284.583 487.841 284.658 488.356 284.64C489.109 284.64 489.884 284.517 490.637 284.464C491.567 284.315 492.518 284.49 493.34 284.962C493.87 285.4 494.373 285.872 494.845 286.375C495.416 286.836 496.058 287.195 496.744 287.436C501.653 289.363 507.099 289.245 511.924 287.108C512.388 286.837 512.913 286.699 513.447 286.709C513.84 286.789 514.213 286.952 514.541 287.19C514.884 287.395 515.22 287.595 515.568 287.776C515.897 288.293 516.118 288.874 516.218 289.482C516.349 290.63 516.289 291.791 516.041 292.918Z" fill="black"/>
<path d="M521.008 289.037C518.737 288.324 516.555 287.34 514.507 286.106C514.178 285.87 513.805 285.706 513.412 285.625C512.878 285.618 512.351 285.756 511.884 286.023C507.06 288.16 501.617 288.278 496.71 286.352C496.024 286.108 495.383 285.749 494.811 285.291C494.337 284.789 493.834 284.317 493.305 283.878C491.429 282.629 488.835 284.095 486.736 283.291C486.364 283.121 485.983 282.97 485.596 282.84C483.936 282.412 482.248 284.112 480.618 283.596C480.011 285.292 479.562 287.043 479.278 288.826C479.046 290.873 478.922 292.932 478.907 294.993C478.907 296.23 478.85 297.467 478.907 298.705C479.108 298.738 479.3 298.815 479.471 298.929C479.641 299.043 479.787 299.192 479.899 299.367C479.974 299.571 480.005 299.79 479.989 300.008C479.973 300.225 479.911 300.437 479.808 300.627C478.616 303.776 477.407 306.959 475.599 309.779C476.873 310.56 478.056 311.488 479.124 312.546C481.119 314.716 482.1 317.758 484.256 319.763C486.685 322.02 490.146 322.572 493.38 323.017L501.517 324.137C502.895 324.402 504.304 324.451 505.697 324.283C506.469 324.139 507.219 323.888 507.926 323.539C508.389 323.34 508.81 323.054 509.17 322.695C509.47 322.344 509.718 321.948 509.905 321.522C510.55 320.197 511.137 318.843 511.679 317.471C511.867 316.984 512.152 316.416 512.665 316.375C515.687 313.572 518.539 310.7 521.561 307.897C522.775 306.862 523.865 305.681 524.806 304.38C526.305 302.099 524.942 298.869 524.806 296.113C524.789 295.408 524.703 294.707 524.549 294.02C524.059 292.021 522.907 289.629 521.008 289.037Z" fill="#FFE34D"/>
<path opacity="0.1" d="M472.595 277.306C472.138 278.244 471.043 278.695 470.199 279.287L467.308 281.327C467.115 281.506 466.889 281.643 466.643 281.73C466.397 281.817 466.136 281.851 465.877 281.832C465.642 281.742 465.426 281.606 465.243 281.429C465.06 281.253 464.913 281.041 464.811 280.806C464.811 280.671 464.811 280.524 464.811 280.384C464.789 279.909 464.851 279.434 464.993 278.982C465.276 278.319 465.715 277.739 466.271 277.294C467.344 276.249 468.621 275.449 470.017 274.949C470.235 274.862 470.471 274.837 470.701 274.878C470.79 274.902 470.875 274.94 470.952 274.99C471.156 275.219 471.329 275.475 471.465 275.752C471.694 276.233 472.828 276.825 472.595 277.306Z" fill="black"/>
<path d="M479.403 283.485C478.434 283.438 477.641 282.717 476.934 282.031L474.773 279.967C474.628 279.842 474.501 279.696 474.396 279.533C474.28 279.305 474.191 279.063 474.134 278.812C473.676 277.628 472.958 276.569 472.036 275.717C471.875 275.507 471.659 275.348 471.414 275.26C471.182 275.216 470.943 275.24 470.724 275.33C469.328 275.83 468.051 276.629 466.977 277.675C466.422 278.121 465.984 278.701 465.7 279.363C465.557 279.815 465.495 280.29 465.518 280.765C465.531 282.314 465.869 283.841 466.51 285.244C466.607 285.461 466.715 285.678 466.829 285.889C467.59 287.181 468.489 288.383 469.509 289.471L470.867 291.03C472.201 292.566 473.535 294.102 474.984 295.515C475.503 296.085 476.132 296.536 476.831 296.84C477.182 296.987 477.566 297.032 477.94 296.97C478.314 296.908 478.664 296.742 478.953 296.488C479.226 296.163 479.431 295.784 479.557 295.374C480.435 293.029 481.268 290.591 481.319 288.064C481.331 287.052 481.289 286.04 481.194 285.033C481.108 283.966 480.372 283.549 479.403 283.485Z" fill="#FFE34D"/>
<path d="M513.96 365.563C513.927 371.46 513.519 377.349 512.74 383.192C512.626 384.136 512.5 385.08 512.437 386.024C512.249 388.761 512.557 391.511 512.306 394.231C512.175 395.703 511.879 397.163 511.628 398.599C510.513 405.01 510.187 411.539 510.658 418.034C511.445 428.839 509.033 439.65 510.128 450.425C510.261 452.521 510.148 454.625 509.791 456.692C509.587 457.975 509.292 459.241 508.908 460.48C508.075 463.415 507.239 466.346 506.398 469.274C506.3 469.719 506.105 470.136 505.828 470.493C505.537 470.752 505.196 470.944 504.827 471.056C504.459 471.168 504.071 471.198 503.69 471.144C500.4 471.038 497.303 469.579 494.315 468.154C493.971 468.015 493.653 467.816 493.374 467.568C492.753 466.905 492.804 465.862 492.53 464.988C492.256 464.115 491.515 463.294 491.093 462.397C490.746 461.548 490.536 460.647 490.472 459.729C490.091 456.728 489.833 453.714 489.696 450.689C489.479 446.433 492.217 442.516 493.118 438.377C494.828 430.24 493.38 421.516 496.419 413.795C497.377 411.356 495.986 408.401 495.849 405.775C495.8 404.081 495.586 402.395 495.21 400.745C494.64 398.54 493.437 396.465 493.351 394.179C493.289 392.525 493.808 390.913 494.076 389.283C494.431 386.885 494.398 384.442 493.979 382.054C493.676 380.085 493.214 378.115 492.753 376.192L492.65 376.409C491.261 379.201 490.066 382.09 489.075 385.056C488.618 386.493 488.219 387.958 487.649 389.354C487.181 390.526 486.605 391.599 486.041 392.701C484.016 396.588 482.254 400.613 480.766 404.749C480.059 406.777 479.437 408.853 478.822 410.887L474.596 424.958C473.456 428.657 472.207 432.233 471.089 435.927C469.509 441.203 467.93 446.433 466.094 451.592C464.383 456.487 462.347 461.558 462.957 466.729C461.385 467.489 459.658 467.849 457.922 467.779C454.983 467.512 452.1 466.792 449.369 465.645C448.279 465.229 447.15 464.76 446.415 463.839C445.149 462.25 445.462 459.923 445.844 457.9C445.988 456.988 446.218 456.093 446.529 455.227C446.962 454.148 447.669 453.192 448.114 452.125C449.009 450.079 449.066 447.764 449.42 445.542C449.773 443.32 450.56 440.975 452.408 439.767C452.722 435.862 454.284 432.011 455.145 428.194C455.795 425.304 456.012 422.331 456.525 419.4C457.038 416.468 457.865 413.537 459.587 411.163C459.451 408.714 459.989 406.276 461.138 404.128C461.416 403.656 461.644 403.154 461.817 402.632C461.923 402.123 461.984 401.605 461.999 401.085C462.188 399.048 463.035 397.134 464.406 395.65C463.836 393.51 464.628 391.276 465.341 389.201C466.239 386.553 466.645 383.755 466.539 380.952C466.45 380.17 466.487 379.378 466.647 378.607C466.807 378.021 467.12 377.523 467.303 376.96C467.465 376.27 467.551 375.564 467.559 374.855C467.782 371.683 469.03 368.693 470.41 365.862C471.232 364.208 470.536 361.963 470.707 360.122C471.004 357.062 471.329 353.896 472.805 351.228C473.079 350.724 473.376 350.243 473.621 349.722C473.918 348.977 474.079 348.182 474.094 347.377C474.146 346.034 474.328 344.92 473.86 343.671C476.911 341.062 481.074 340.33 485.043 340.154C489.012 339.978 493.026 340.347 496.91 339.48C498.05 339.216 499.191 338.852 500.394 338.676C503.125 338.266 505.897 338.905 508.594 339.538C508.406 341.297 509.033 342.985 509.734 344.621C512.473 351.247 513.909 358.364 513.96 365.563Z" fill="#33313F"/>
<path opacity="0.1" d="M500.531 366.905L493.979 382.054C493.676 380.085 493.214 378.115 492.753 376.192L492.65 376.409V376.092L496.22 368.019L500.531 366.905Z" fill="black"/>
<path opacity="0.1" d="M520.164 335.258C519.786 335.549 519.335 335.722 518.864 335.757C518.142 335.783 517.42 335.682 516.731 335.458L511.599 334.139C511.438 334.098 511.281 334.041 511.131 333.969C511.217 333.048 511.388 331.981 511.873 331.624C512.597 331.125 514.764 331.794 515.585 331.911C516.999 332.11 518.436 332.345 519.816 332.62C520.03 333.483 520.147 334.368 520.164 335.258Z" fill="black"/>
<path d="M524.504 300.375C524.612 300.862 524.766 301.343 524.857 301.835C525.011 303.043 524.97 304.269 524.737 305.464L524.27 308.818L523.802 312.189L521.995 325.163L521.55 328.376L520.922 332.861C520.893 333.234 520.8 333.599 520.649 333.939C520.462 334.258 520.201 334.524 519.889 334.713C519.578 334.903 519.225 335.009 518.864 335.024C518.142 335.047 517.421 334.946 516.731 334.725L511.599 333.4C511.374 333.359 511.16 333.269 510.972 333.136C510.815 332.979 510.702 332.781 510.643 332.564C510.585 332.346 510.585 332.117 510.641 331.899C510.715 331.454 510.903 331.037 510.966 330.592C511.091 329.724 510.738 328.833 510.863 327.971C510.986 327.422 511.178 326.892 511.434 326.394C513.144 322.507 512.152 317.969 512.734 313.748C513.257 310.426 514.622 307.304 516.691 304.696C517.968 303.05 519.435 301.57 521.059 300.287C521.698 299.777 522.713 298.728 523.517 298.529C524.549 298.306 524.333 299.637 524.504 300.375Z" fill="#FFE34D"/>
<path d="M485.664 249.874C485.288 251.105 485.875 252.46 485.607 253.714C485.317 255.098 484.051 256.059 483.691 257.449C483.121 259.565 484.866 261.494 486.143 263.253C490.876 269.784 490.255 278.824 488.635 286.792C487.332 293.184 485.53 299.458 483.247 305.552C482.534 307.446 481.747 309.369 480.344 310.788C482.967 310.014 485.756 309.234 488.384 309.984C491.715 310.934 494.589 314.258 497.965 313.502C499.995 313.039 501.42 311.186 503.245 310.16C506.666 308.267 510.789 309.457 514.604 310.066C515.426 310.266 516.286 310.221 517.085 309.937C517.695 309.6 518.213 309.11 518.59 308.513C520.293 306.267 521.312 303.555 521.521 300.715C521.611 299.302 521.409 297.884 520.926 296.557C520.443 295.23 519.692 294.024 518.721 293.018C517.912 292.232 516.942 291.599 516.321 290.673C515.716 289.591 515.392 288.367 515.38 287.12C514.929 280.671 516.458 274.087 514.884 267.849C514.313 265.627 513.384 263.499 513.133 261.224C512.819 258.393 513.566 255.362 512.472 252.77C511.61 250.712 509.712 249.253 507.664 248.502C505.617 247.752 503.427 247.541 501.255 247.33C498.13 247.06 486.97 245.682 485.664 249.874Z" fill="#33313F"/>
<g opacity="0.1">
<path opacity="0.1" d="M488.635 286.792C487.339 293.157 485.546 299.406 483.275 305.476C483.669 304.673 483.999 303.828 484.313 302.99C486.599 296.897 488.401 290.622 489.702 284.23C491.327 276.256 491.948 267.228 487.215 260.691C486.075 259.131 484.61 257.443 484.661 255.614C484.239 256.167 483.912 256.789 483.691 257.455C483.121 259.571 484.866 261.5 486.143 263.259C490.876 269.784 490.255 278.824 488.635 286.792Z" fill="black"/>
<path opacity="0.1" d="M485.676 253.122C486.133 252.538 486.474 251.866 486.679 251.146C486.768 250.275 486.745 249.396 486.611 248.532C486.172 248.871 485.842 249.339 485.664 249.874C485.328 250.912 485.716 252.037 485.676 253.122Z" fill="black"/>
<path opacity="0.1" d="M519.662 305.933C519.285 306.529 518.767 307.017 518.157 307.352C517.36 307.642 516.498 307.686 515.676 307.481C511.861 306.895 507.693 305.687 504.317 307.581C502.487 308.601 501.067 310.453 499.031 310.922C495.661 311.696 492.787 308.372 489.456 307.405C487.096 306.731 484.609 307.287 482.232 307.991C481.759 309.027 481.121 309.974 480.344 310.793C482.967 310.02 485.756 309.24 488.384 309.99C491.715 310.94 494.589 314.264 497.965 313.508C499.995 313.045 501.42 311.192 503.245 310.166C506.666 308.272 510.789 309.463 514.604 310.072C515.426 310.272 516.287 310.227 517.085 309.943C517.695 309.606 518.213 309.116 518.59 308.519C519.624 307.117 520.422 305.548 520.951 303.875C520.57 304.592 520.139 305.28 519.662 305.933Z" fill="black"/>
</g>
</g>
<defs>
<linearGradient id="paint0_linear" x1="438.289" y1="359.043" x2="525.536" y2="359.043" gradientUnits="userSpaceOnUse">
<stop stop-color="#808080" stop-opacity="0.25"/>
<stop offset="0.54" stop-color="#808080" stop-opacity="0.12"/>
<stop offset="1" stop-color="#808080" stop-opacity="0.1"/>
</linearGradient>
<clipPath id="clip0">
<rect width="665" height="472" fill="white"/>
</clipPath>
</defs>
</svg>
