<svg width="145" height="145" viewBox="0 0 145 145" fill="none" xmlns="http://www.w3.org/2000/svg">
<path d="M72.1597 54.8026C62.4037 54.8026 54.1597 63.0466 54.1597 72.8026C54.1597 82.5586 62.4037 90.8026 72.1597 90.8026C81.9157 90.8026 90.1597 82.5586 90.1597 72.8026C90.1597 63.0466 81.9157 54.8026 72.1597 54.8026Z" fill="#31CF2B"/>
<path d="M120.16 30.8025H104.644L88.4017 14.5605C87.8454 14.0023 87.1843 13.5595 86.4563 13.2578C85.7282 12.9561 84.9477 12.8014 84.1597 12.8025H60.1597C59.3716 12.8014 58.5911 12.9561 57.8631 13.2578C57.1351 13.5595 56.4739 14.0023 55.9177 14.5605L39.6757 30.8025H24.1597C17.5417 30.8025 12.1597 36.1845 12.1597 42.8025V108.803C12.1597 115.421 17.5417 120.803 24.1597 120.803H120.16C126.778 120.803 132.16 115.421 132.16 108.803V42.8025C132.16 36.1845 126.778 30.8025 120.16 30.8025ZM72.1597 102.803C55.8997 102.803 42.1597 89.0625 42.1597 72.8025C42.1597 56.5425 55.8997 42.8025 72.1597 42.8025C88.4197 42.8025 102.16 56.5425 102.16 72.8025C102.16 89.0625 88.4197 102.803 72.1597 102.803Z" fill="#31CF2B"/>
</svg>
