<svg width="23" height="23" viewBox="0 0 23 23" fill="none" xmlns="http://www.w3.org/2000/svg">
<path d="M8.625 8.625H10.0625V17.25H8.625V8.625Z" fill="#31CF2B"/>
<path d="M12.9375 8.625H14.375V17.25H12.9375V8.625Z" fill="#31CF2B"/>
<path d="M2.875 4.3125V5.75H4.3125V20.125C4.3125 20.5062 4.46395 20.8719 4.73353 21.1415C5.00312 21.411 5.36875 21.5625 5.75 21.5625H17.25C17.6312 21.5625 17.9969 21.411 18.2665 21.1415C18.536 20.8719 18.6875 20.5062 18.6875 20.125V5.75H20.125V4.3125H2.875ZM5.75 20.125V5.75H17.25V20.125H5.75Z" fill="#31CF2B"/>
<path d="M8.625 1.4375H14.375V2.875H8.625V1.4375Z" fill="#31CF2B"/>
</svg>
