<svg width="38" height="38" viewBox="0 0 38 38" fill="none" xmlns="http://www.w3.org/2000/svg">
<path d="M19 34.7541H26.9166V31.5874H19C12.1283 31.5874 6.33329 25.7924 6.33329 18.9207C6.33329 12.0491 12.1283 6.25407 19 6.25407C25.8716 6.25407 31.6666 12.0491 31.6666 18.9207V21.1849C31.6666 22.4357 30.5425 23.6707 29.2916 23.6707C28.0408 23.6707 26.9166 22.4357 26.9166 21.1849V18.9207C26.9166 14.5507 23.37 11.0041 19 11.0041C14.63 11.0041 11.0833 14.5507 11.0833 18.9207C11.0833 23.2907 14.63 26.8374 19 26.8374C21.185 26.8374 23.18 25.9507 24.605 24.5099C25.6341 25.9191 27.4075 26.8374 29.2916 26.8374C32.4108 26.8374 34.8333 24.3041 34.8333 21.1849V18.9207C34.8333 10.1807 27.74 3.0874 19 3.0874C10.26 3.0874 3.16663 10.1807 3.16663 18.9207C3.16663 27.6607 10.26 34.7541 19 34.7541ZM19 23.6707C16.3716 23.6707 14.25 21.5491 14.25 18.9207C14.25 16.2924 16.3716 14.1707 19 14.1707C21.6283 14.1707 23.75 16.2924 23.75 18.9207C23.75 21.5491 21.6283 23.6707 19 23.6707Z" fill="#EBCE34"/>
</svg>
