<svg width="40" height="41" viewBox="0 0 40 41" fill="none" xmlns="http://www.w3.org/2000/svg">
<g clip-path="url(#clip0)">
<path d="M16.978 24.4449C19.3073 26.8578 22.1257 28.7207 25.2352 29.9028L29.4419 26.4845C29.5666 26.3968 29.7144 26.3498 29.8659 26.3498C30.0173 26.3498 30.1652 26.3968 30.2899 26.4845L38.1007 31.6233C38.3973 31.8054 38.6483 32.0553 38.8339 32.3535C39.0196 32.6516 39.1349 32.9897 39.1706 33.3412C39.2063 33.6926 39.1615 34.0477 39.0397 34.3784C38.918 34.7091 38.7226 35.0064 38.469 35.2467L34.809 38.9385C34.2849 39.4673 33.6407 39.8554 32.9339 40.0682C32.2271 40.2809 31.4798 40.3117 30.7585 40.1577C23.5639 38.6403 16.9324 35.0866 11.622 29.9028C6.42944 24.6673 2.83623 18.0057 1.27822 10.7261C1.12431 10.001 1.15643 9.24758 1.37147 8.53889C1.58652 7.8302 1.97719 7.19026 2.50563 6.68107L6.29947 2.94372C6.53424 2.69736 6.82055 2.50843 7.13695 2.39107C7.45336 2.27371 7.79167 2.23097 8.12655 2.26604C8.46142 2.30112 8.78419 2.4131 9.07068 2.5936C9.35717 2.7741 9.59996 3.01845 9.78087 3.30834L14.9807 11.1818C15.0703 11.3055 15.1188 11.4553 15.1188 11.6091C15.1188 11.763 15.0703 11.9128 14.9807 12.0364L11.555 16.2409C12.7441 19.3527 14.5965 22.1551 16.978 24.4449V24.4449Z" fill="#EBCE34"/>
</g>
<defs>
<clipPath id="clip0">
<rect width="40" height="40" fill="white" transform="translate(0 0.959961)"/>
</clipPath>
</defs>
</svg>
