<svg width="49" height="49" viewBox="0 0 49 49" fill="none" xmlns="http://www.w3.org/2000/svg">
<path d="M33.3047 22.9688H26.0312V15.6953C26.0312 15.4848 25.859 15.3125 25.6484 15.3125H23.3516C23.141 15.3125 22.9688 15.4848 22.9688 15.6953V22.9688H15.6953C15.4848 22.9688 15.3125 23.141 15.3125 23.3516V25.6484C15.3125 25.859 15.4848 26.0312 15.6953 26.0312H22.9688V33.3047C22.9688 33.5152 23.141 33.6875 23.3516 33.6875H25.6484C25.859 33.6875 26.0312 33.5152 26.0312 33.3047V26.0312H33.3047C33.5152 26.0312 33.6875 25.859 33.6875 25.6484V23.3516C33.6875 23.141 33.5152 22.9688 33.3047 22.9688Z" fill="#FFE34D"/>
<path d="M24.5 3.0625C12.6615 3.0625 3.0625 12.6615 3.0625 24.5C3.0625 36.3385 12.6615 45.9375 24.5 45.9375C36.3385 45.9375 45.9375 36.3385 45.9375 24.5C45.9375 12.6615 36.3385 3.0625 24.5 3.0625ZM24.5 42.3008C14.6713 42.3008 6.69922 34.3287 6.69922 24.5C6.69922 14.6713 14.6713 6.69922 24.5 6.69922C34.3287 6.69922 42.3008 14.6713 42.3008 24.5C42.3008 34.3287 34.3287 42.3008 24.5 42.3008Z" fill="#FFE34D"/>
</svg>
