<svg width="94" height="94" viewBox="0 0 94 94" fill="none" xmlns="http://www.w3.org/2000/svg">
<path d="M47 82.2499C64.2764 82.2499 78.3333 68.193 78.3333 50.9166C78.3333 37.7958 70.218 26.551 58.75 21.8902V30.5969C62.3178 32.6568 65.2813 35.6184 67.3436 39.1847C69.4059 42.7511 70.4944 46.7969 70.5 50.9166C70.5 63.8769 59.9602 74.4166 47 74.4166C34.0397 74.4166 23.5 63.8769 23.5 50.9166C23.5052 46.7968 24.5935 42.7508 26.6558 39.1844C28.7182 35.618 31.682 32.6565 35.25 30.5969V21.8902C23.782 26.551 15.6667 37.7958 15.6667 50.9166C15.6667 68.193 29.7236 82.2499 47 82.2499Z" fill="#31CF2B"/>
<path d="M43.0833 7.83331H50.9167V47H43.0833V7.83331Z" fill="#31CF2B"/>
</svg>
