<svg width="33" height="33" viewBox="0 0 33 33" fill="none" xmlns="http://www.w3.org/2000/svg">
<path d="M14.1124 28.2232C17.2435 28.2226 20.2844 27.1744 22.7509 25.2457L30.5056 33L33 30.5058L25.2453 22.7514C27.1751 20.2848 28.224 17.2434 28.2247 14.1116C28.2247 6.33082 21.8936 0 14.1124 0C6.33116 0 0 6.33082 0 14.1116C0 21.8924 6.33116 28.2232 14.1124 28.2232ZM14.1124 3.5279C19.9496 3.5279 24.6966 8.2747 24.6966 14.1116C24.6966 19.9485 19.9496 24.6953 14.1124 24.6953C8.27514 24.6953 3.52809 19.9485 3.52809 14.1116C3.52809 8.2747 8.27514 3.5279 14.1124 3.5279Z" fill="#31CF2B"/>
</svg>
