<svg width="581" height="359" viewBox="0 0 581 359" fill="none" xmlns="http://www.w3.org/2000/svg">
<g clip-path="url(#clip0)">
<path d="M40.1648 336.861L74.4307 286.284L40.1473 342.363L40.1274 348.118C37.6838 348.096 35.2649 348.015 32.8707 347.873C32.8597 346.566 35.7722 274.674 35.6484 273.374C35.8174 273.325 35.9123 266.574 35.9793 266.279L0.181396 211.009L36.0178 261.048L36.1246 262.527L38.2506 206.672L7.47845 149.474L38.494 196.858C38.5055 196.098 39.962 81.4145 39.9763 80.7068C39.9851 81.0827 40.6536 171.972 40.6585 172.355L70.0884 135.771L40.6303 180.216L40.4798 230.206L67.7905 181.865C33.707 252.363 41.2499 227.693 40.3794 265.353L80.0498 198.041L40.3454 275.05L40.1648 336.861Z" fill="#D0CDE1"/>
<path d="M564.379 343.728L578.658 322.651L564.372 346.021L564.363 348.419C563.345 348.41 562.337 348.376 561.339 348.317C561.335 347.772 562.548 317.813 562.497 317.271C562.567 317.251 562.607 314.438 562.635 314.315L547.717 291.282L562.651 312.135L562.695 312.751L563.581 289.475L550.758 265.639L563.683 285.385C563.687 285.068 564.294 237.277 564.3 236.982C564.304 237.139 564.583 275.015 564.585 275.174L576.849 259.929L564.573 278.45L564.51 299.282L575.891 279.137C561.688 308.515 564.831 298.235 564.468 313.929L581 285.878L564.454 317.97L564.379 343.728Z" fill="#D0CDE1"/>
<path d="M289.55 359C449.465 359 579.101 353.782 579.101 347.346C579.101 340.91 449.465 335.692 289.55 335.692C129.636 335.692 0 340.91 0 347.346C0 353.782 129.636 359 289.55 359Z" fill="#D0CDE1"/>
<path d="M430.004 137.646H99.3978V340.132H430.004V137.646Z" fill="#3F3D56"/>
<path d="M181.218 137.646C180.88 158.953 172.404 179.271 157.617 194.217C142.831 209.163 122.919 217.541 102.175 217.543C101.245 217.543 100.322 217.526 99.3979 217.493V137.646H181.218Z" fill="#FFE34D"/>
<path d="M280.873 340.132H249.429C250.613 336.827 252.754 333.974 255.566 331.958C258.377 329.943 261.723 328.863 265.151 328.863C268.579 328.863 271.925 329.943 274.737 331.958C277.548 333.974 279.69 336.827 280.873 340.132Z" fill="#FFE34D"/>
<path d="M430.004 235.396V303.6C421.48 303.172 413.444 299.392 407.559 293.043C401.674 286.695 398.391 278.264 398.391 269.498C398.391 260.731 401.674 252.3 407.559 245.952C413.444 239.603 421.48 235.824 430.004 235.396Z" fill="#FFE34D"/>
<path d="M369.269 211.224H160.706C155.327 211.224 150.966 215.704 150.966 221.231V221.231C150.966 226.757 155.327 231.237 160.706 231.237H369.269C374.648 231.237 379.009 226.757 379.009 221.231C379.009 215.704 374.648 211.224 369.269 211.224Z" fill="white"/>
<path d="M369.269 250.662H160.706C155.327 250.662 150.966 255.142 150.966 260.668V260.668C150.966 266.195 155.327 270.675 160.706 270.675H369.269C374.648 270.675 379.009 266.195 379.009 260.668C379.009 255.142 374.648 250.662 369.269 250.662Z" fill="white"/>
<path d="M369.269 290.099H308.797C303.417 290.099 299.056 294.579 299.056 300.106C299.056 305.632 303.417 310.112 308.797 310.112H369.269C374.648 310.112 379.009 305.632 379.009 300.106C379.009 294.579 374.648 290.099 369.269 290.099Z" fill="white"/>
<path d="M482.432 62.2213C482.432 62.2213 491.523 65.8532 492.028 77.7867C492.533 89.7201 489.503 122.926 489.503 122.926C489.503 122.926 500.614 139.529 492.028 144.199C483.442 148.868 482.432 125.52 482.432 125.52L472.331 76.2301C472.331 76.2301 478.391 61.7025 482.432 62.2213Z" fill="#A0616A"/>
<path d="M389.502 100.616C389.502 100.616 367.784 115.143 366.774 103.729C365.764 92.3144 373.34 47.6937 373.34 47.6937C373.34 47.6937 374.35 28.4965 384.956 33.1661C395.562 37.8357 381.926 53.9199 381.926 53.9199L383.441 90.239L393.542 89.7201L389.502 100.616Z" fill="#A0616A"/>
<path d="M424.351 114.106C424.351 114.106 357.683 88.6824 361.219 118.257C364.754 147.831 381.926 185.187 381.926 185.187L387.987 195.046H400.613L392.532 141.605C392.532 141.605 421.32 158.208 429.906 155.613C429.906 155.613 441.017 231.883 445.058 237.591C449.098 243.298 456.169 312.304 456.169 312.304L462.735 320.606H475.361V203.866C475.361 203.866 497.078 131.228 480.412 127.596C463.745 123.964 424.351 114.106 424.351 114.106Z" fill="#2F2E41"/>
<path d="M386.472 188.301C386.472 188.301 383.441 182.593 378.391 188.301C373.34 194.008 361.219 200.753 361.219 200.753C361.219 200.753 334.956 206.979 356.168 212.167C377.381 217.356 379.906 212.167 379.906 212.167C379.906 212.167 383.441 213.205 386.472 214.243C389.502 215.28 409.199 211.649 409.199 208.536C409.199 205.422 402.512 186.818 399.795 189.635C397.078 192.451 386.472 188.301 386.472 188.301Z" fill="#2F2E41"/>
<path d="M463.702 315.47C463.702 315.47 456.256 309.17 454.503 310.97C452.751 312.77 443.552 324.92 443.552 324.92C443.552 324.92 419.022 344.271 441.362 347.421C463.702 350.571 462.388 342.02 462.388 342.02H469.397C470.273 342.02 482.1 336.62 481.662 334.37C481.224 332.12 475.968 313.773 474.216 315.071C472.463 316.37 463.702 315.47 463.702 315.47Z" fill="#2F2E41"/>
<path d="M396.067 42.5053C405.551 42.5053 413.239 34.6073 413.239 24.8646C413.239 15.1219 405.551 7.22388 396.067 7.22388C386.584 7.22388 378.896 15.1219 378.896 24.8646C378.896 34.6073 386.584 42.5053 396.067 42.5053Z" fill="#A0616A"/>
<path d="M408.189 22.7892C408.189 22.7892 421.32 34.2038 430.411 34.2038C439.502 34.2038 417.28 55.4764 417.28 55.4764L397.583 37.3168L408.189 22.7892Z" fill="#A0616A"/>
<path d="M413.239 55.4765L412.846 51.3888C412.846 51.3888 422.835 33.1661 425.866 31.6096C428.896 30.0531 430.916 30.0531 430.916 30.0531C430.916 30.0531 441.017 19.1573 452.129 24.8646C463.24 30.5719 489.503 66.891 489.503 66.891C489.503 66.891 470.816 68.4476 473.341 83.494C473.341 83.494 492.028 132.784 486.977 133.303C481.927 133.822 466.775 130.19 451.119 137.454C435.462 144.718 428.391 140.048 428.391 140.048L420.31 113.068C420.31 113.068 405.159 104.248 405.664 96.4652L383.694 106.583L385.714 87.3854L399.098 71.5606C399.098 71.5606 396.573 69.4852 413.239 55.4765Z" fill="#FFE34D"/>
<path d="M380.272 26.7717C379.589 27.5509 378.734 28.1494 377.778 28.5163C376.8 28.7997 375.568 28.4522 375.178 27.4881L375.904 26.5173L373.727 25.1277L374.676 23.9845L372.923 22.0286L374.306 20.9008L371.672 18.965C375.086 13.2409 378.779 7.44503 384.17 3.65046C389.562 -0.144111 397.095 -1.49245 402.617 2.0967C405.485 3.96013 407.512 6.91772 409.137 9.97801C412.403 16.1326 415.282 22.1319 415.707 29.1282C413.655 27.0756 410.66 25.9189 408.608 23.8663C407.7 22.8759 406.67 22.0102 405.546 21.2909C403.4 20.0477 400.832 19.9377 398.429 19.3769C396.409 18.9053 395.098 17.9699 393.57 16.6326C391.752 15.0418 391.678 15.6569 389.842 17.448C386.654 20.5581 383.464 23.666 380.272 26.7717Z" fill="#2F2E41"/>
</g>
<defs>
<clipPath id="clip0">
<rect width="581" height="359" fill="white"/>
</clipPath>
</defs>
</svg>
