<svg width="1012" height="551" viewBox="0 0 1012 551" fill="none" xmlns="http://www.w3.org/2000/svg">
<g clip-path="url(#clip0)">
<path opacity="0.1" d="M938.463 452.127C935.304 454.427 932.075 456.661 928.776 458.83C928.221 459.202 927.648 459.559 927.085 459.938C915.315 467.498 902.959 474.41 890.096 480.629L887.692 481.788C887.111 482.08 886.538 482.35 885.931 482.62C872.492 489.045 858.551 494.96 844.442 500.561L844.292 500.626L843.227 501.042C831.849 505.559 820.3 509.881 808.581 514.009L808.299 514.097C803.015 515.939 797.731 517.734 792.447 519.479C790.29 520.208 788.123 520.887 785.957 521.579C781.879 522.87 777.793 524.139 773.671 525.357L773.16 525.518L772.28 525.773L771.179 526.108C760.429 529.288 749.535 532.225 738.497 534.918L738.303 534.962C730.606 536.82 722.859 538.538 715.062 540.118L713.997 540.337C702.548 542.627 690.914 544.596 679.21 546.172L676.515 546.529C667.955 547.642 659.336 548.552 650.659 549.257C601.878 553.158 552.516 549.986 504.035 544.545C406.14 533.547 309.538 512.93 221.436 480.614C204.527 474.415 187.947 467.778 171.695 460.704C171.563 460.646 171.449 460.587 171.317 460.536C161.588 456.301 151.992 451.889 142.527 447.299C139.753 445.972 136.997 444.615 134.258 443.252C130.888 441.569 127.532 439.868 124.192 438.147C119.788 435.871 115.385 433.537 110.982 431.152L108.921 430.015L108.128 429.57C107.01 428.95 105.909 428.33 104.799 427.703C63.4076 404.365 26.4986 376.082 9.06124 340.689C-11.0886 299.848 1.80449 248.067 51.7123 223.927C68.8678 215.613 88.8063 211.098 108.956 207.371L111.017 206.992C114.425 206.372 117.833 205.774 121.224 205.176C133.104 203.09 145.046 201.019 156.874 198.707C163.038 197.504 169.141 196.242 175.209 194.878L177.693 194.31C192.326 191.058 206.638 186.884 220.502 181.824H220.59C222.079 181.277 223.549 180.708 224.994 180.124C225.927 179.76 226.861 179.395 227.794 178.994C242.766 172.824 258.618 164.269 270.815 154.074C271.793 153.257 272.744 152.425 273.669 151.594C274.382 150.945 275.086 150.288 275.765 149.632C284.316 141.376 290.234 132.209 291.361 122.48C291.741 119.211 291.563 115.913 290.833 112.685C289.45 106.566 288.112 100.579 287.125 94.737C285.285 83.7609 284.659 73.2662 287.213 63.1507C289.811 52.8382 295.703 42.9123 306.949 33.2855C308.646 31.8269 310.475 30.3682 312.436 28.9096C321.531 22.3018 331.822 16.9172 342.934 12.9524C344.307 12.4661 345.69 11.9799 347.082 11.4937C377.976 1.13755 415.096 -1.0212 449.777 0.408248C482.178 1.7891 514.373 5.49821 545.999 11.4937C548.509 11.9605 551.019 12.4491 553.512 12.9524C580.415 18.3493 606.886 25.128 632.772 33.249C700.038 54.202 763.526 83.2942 822.839 115.398C823.421 115.712 824.002 116.026 824.601 116.346C827.078 117.683 829.541 119.025 831.989 120.372C836.727 122.973 841.424 125.592 846.08 128.227L849.224 129.999C850.774 130.874 852.315 131.752 853.848 132.632L858.568 135.338C858.791 135.448 859.002 135.573 859.202 135.71L863.218 138.014C865.543 139.356 867.851 140.705 870.167 142.062L875.134 144.979C876.164 145.592 877.203 146.197 878.234 146.817L883.518 150.011L884.698 150.741C884.944 150.886 885.191 151.032 885.429 151.193L885.578 151.273C899.898 159.974 913.875 168.995 926.97 178.556L928.661 179.796L928.837 179.928C930.264 180.978 931.691 182.043 933.091 183.115C950.193 196.009 965.517 209.866 978.04 225.181C1035.57 295.924 1018.49 393.877 938.463 452.127Z" fill="#31CF2B"/>
<path d="M714.72 258C714.72 258 719.845 235.756 736.314 235.64L748.362 256.162L740.259 260.721C740.259 260.721 722.857 261.18 714.72 258Z" fill="#65617D"/>
<path opacity="0.1" d="M748.326 256.133L740.259 260.721C740.259 260.721 727.983 261.041 719.211 259.262C717.667 258.965 716.163 258.542 714.72 258C714.72 258 714.72 257.876 714.808 257.643C714.805 257.614 714.805 257.585 714.808 257.555C715.566 254.765 716.609 252.032 717.925 249.387C718.427 248.388 719.009 247.36 719.625 246.331C722.038 242.488 725.429 238.717 730.07 236.85C731.784 236.154 733.65 235.75 735.557 235.662H736.05H736.288L736.561 236.114L740.629 243.049L748.326 256.133Z" fill="black"/>
<path d="M885.113 348.544C885.113 348.544 902.418 347.173 903.941 348.201C905.465 349.229 915.293 354.51 921.114 351.184C926.936 347.858 923.052 336.277 923.052 335.818C923.052 335.358 922.497 318.963 922.497 318.963L912.114 307.382L899.098 287.092L872.519 284.904L873.206 317.125L873.074 333.637L885.113 348.544Z" fill="#65617D"/>
<path opacity="0.1" d="M885.113 348.544C885.113 348.544 902.418 347.173 903.941 348.201C905.465 349.229 915.293 354.51 921.114 351.184C926.936 347.858 923.052 336.277 923.052 335.818C923.052 335.358 922.497 318.963 922.497 318.963L912.114 307.382L899.098 287.092L872.519 284.904L873.206 317.125L873.074 333.637L885.113 348.544Z" fill="black"/>
<path d="M732.818 235.042C732.818 235.042 731.453 249.03 720.885 249.249C720.885 249.249 717.908 247.79 713.892 245.274C704.645 239.549 689.982 228.536 694.033 218.289C699.845 203.616 728.088 230.688 728.088 230.688L730.264 232.701L732.818 235.042Z" fill="#A5636D"/>
<path opacity="0.1" d="M732.818 235.042C732.818 235.042 731.453 249.03 720.885 249.249C720.885 249.249 717.908 247.79 713.892 245.274L713.011 244.318C714.797 245.094 716.766 245.534 718.78 245.609C721.422 245.653 724.398 244.88 726.309 241.678C727.414 239.878 728.387 238.025 729.224 236.128C729.723 235.015 730.078 233.861 730.281 232.686L732.818 235.042Z" fill="black"/>
<path d="M728.247 260.378L725.878 257.854L717.952 249.358L713.839 245.019C715.622 245.79 717.588 246.228 719.599 246.302C722.241 246.353 725.217 245.573 727.128 242.371C728.237 240.572 729.21 238.719 730.043 236.821C731.356 233.729 731.329 232.139 730.862 231.599C730.396 231.06 733.804 233.678 735.442 234.969L735.504 235.012L736.261 235.61L736.552 236.077L740.559 242.721C740.559 242.721 740.559 242.816 740.559 242.998C740.929 245.106 742.276 258.482 728.247 260.378Z" fill="#E7EFFD"/>
<path d="M881.238 169.455L860.744 187.578C860.744 187.578 834.447 178.826 837.213 175.909C838.287 174.757 838.093 171.118 837.494 167.099C836.526 160.747 834.447 153.432 834.447 153.432C834.447 153.432 880.41 147.24 876.526 153.665C875.117 156.006 875.355 158.771 876.235 161.279C877.367 164.208 879.055 166.968 881.238 169.455Z" fill="#A5636D"/>
<path opacity="0.1" d="M876.526 153.636C875.117 155.977 874.439 156.203 875.32 158.741C869.313 164.08 861.669 169.922 852.167 169.922C847.076 169.929 842.052 168.956 837.494 167.077C836.526 160.725 834.447 153.41 834.447 153.41C834.447 153.41 880.41 147.211 876.526 153.636Z" fill="black"/>
<path d="M885.121 141.938C885.121 149.176 881.649 156.117 875.469 161.235C869.289 166.354 860.907 169.229 852.167 169.229C843.426 169.229 835.044 166.354 828.864 161.235C822.684 156.117 819.212 149.176 819.212 141.938C819.212 141.807 819.212 141.675 819.212 141.544C819.401 134.377 822.988 127.56 829.198 122.565C835.407 117.571 843.74 114.8 852.396 114.851C861.053 114.903 869.337 117.773 875.458 122.842C881.58 127.91 885.048 134.77 885.113 141.938H885.121Z" fill="#A5636D"/>
<path opacity="0.1" d="M889.886 321.961C885.483 321.961 870.987 322.092 854.747 322.303H854.545L849.181 322.376H849.014C829.754 322.632 810.775 319.517 803.157 320.108C786.953 321.37 808.97 307.71 808.97 307.71C821.041 310.135 833.457 311.176 845.87 310.802L850.529 310.598C865.245 309.912 880.04 308.767 887.772 306.842C888.31 310.401 889.093 315.557 889.886 321.961Z" fill="black"/>
<path d="M889.886 321.275C885.483 321.275 870.987 321.399 854.747 321.618H854.545L849.181 321.691H849.014C829.754 321.946 810.775 318.832 803.157 319.423C786.953 320.677 808.97 307.024 808.97 307.024C821.041 309.449 833.457 310.488 845.87 310.109L850.529 309.912C865.245 309.227 880.04 308.075 887.772 306.157C888.31 309.716 889.093 314.886 889.886 321.275Z" fill="#5F5D7E"/>
<path opacity="0.1" d="M843.298 177.047L817.82 186.907L798.172 312.771C798.172 312.771 809.797 308.395 816.446 311.167C823.095 313.938 843.58 311.4 843.58 311.4C843.58 311.4 858.551 310.671 860.744 312.086C862.937 313.501 888.996 306.353 888.996 306.353C888.996 306.353 893.699 297.638 890.097 296.267C886.495 294.896 891.207 281.338 891.207 281.338L888.996 190.532L884.593 178.863L872.686 172.904L860.506 180.927L854.694 181.62L843.298 177.047Z" fill="black"/>
<path d="M843.298 175.647L817.829 185.507L798.172 311.4C798.172 311.4 809.797 307.024 816.446 309.796C823.095 312.567 843.58 310.022 843.58 310.022C843.58 310.022 858.551 309.336 860.744 310.707C862.937 312.078 888.996 304.975 888.996 304.975C888.996 304.975 893.699 296.267 890.097 294.889C886.495 293.51 891.207 279.982 891.207 279.982L888.996 189.175L884.593 177.506L872.686 171.541L860.506 179.563L854.694 180.249L843.298 175.647Z" fill="#E7EFFD"/>
<path opacity="0.1" d="M842.884 181.496C842.884 181.496 850.229 188.716 850.088 190.211C849.947 191.706 849.674 195.25 849.674 195.25L844.179 204.542C844.179 204.542 841.132 216.123 841.132 218.53C841.132 220.937 836.288 241.802 836.288 241.802L830.476 273.892L823.131 315.973L830.608 326.635L839.467 320.444L851.224 245.471L853.717 230.68C853.717 230.68 856.359 204.082 856.359 201.333C856.359 198.583 854.835 191.356 854.835 191.356C854.835 191.356 856.64 184.479 864.117 182.874C871.594 181.27 863.562 182.524 863.562 182.524L859.274 179.658L855.531 180.92C855.531 180.92 845.104 178.287 842.884 181.496Z" fill="black"/>
<path d="M842.056 180.81C842.056 180.81 849.392 188.03 849.26 189.518C849.128 191.006 848.838 194.565 848.838 194.565L843.298 203.856C843.298 203.856 840.251 215.43 840.251 217.837C840.251 220.244 835.407 241.117 835.407 241.117L829.586 273.206L822.25 315.28L829.727 325.943L838.587 319.751L850.344 244.785L852.836 229.995C852.836 229.995 855.478 203.397 855.478 200.64C855.478 197.883 853.954 190.67 853.954 190.67C853.954 190.67 855.716 183.786 863.228 182.181C870.74 180.577 862.682 181.839 862.682 181.839L858.384 178.972L854.65 180.234C854.65 180.234 844.276 177.594 842.056 180.81Z" fill="#31CF2B"/>
<path opacity="0.1" d="M837.213 168.769C837.213 168.769 836.103 169.455 835.83 174.042C835.557 178.63 831.673 188.949 831.673 188.949C831.673 188.949 846.072 180.693 853.276 181.612L837.213 168.769Z" fill="black"/>
<path d="M837.213 167.391C837.213 167.391 836.103 168.084 835.83 172.664C835.557 177.244 831.673 187.571 831.673 187.571C831.673 187.571 846.072 179.315 853.276 180.234L837.213 167.391Z" fill="#E7EFFD"/>
<path opacity="0.1" d="M876.535 165.101L853.866 181.612C853.866 181.612 872.977 191.013 875.469 193.281C877.961 195.55 880.454 170.811 880.454 170.811L876.535 165.101Z" fill="black"/>
<path d="M877.363 163.723L854.659 180.234C854.659 180.234 873.761 189.635 876.253 191.903C878.745 194.171 881.238 169.426 881.238 169.426L877.363 163.723Z" fill="#E7EFFD"/>
<path opacity="0.1" d="M838.014 168.769C838.014 168.769 835.522 167.734 833.17 170.717C830.819 173.699 826.389 175.092 826.389 175.092C826.389 175.092 801.184 178.418 800.216 181.168L788.45 181.736C788.45 181.736 784.293 182.152 783.906 189.445C783.518 196.738 781.264 197.351 781.264 197.351C781.264 197.351 776.411 204.462 776.86 208.13C777.309 211.799 773.117 213.636 773.117 213.636L790.458 250.86C790.458 250.86 791.013 266.227 787.816 271.843C784.619 277.458 778.674 302.342 778.674 302.342C778.674 302.342 781.167 301.883 781.026 303.261C780.885 304.64 777.979 319.656 777.979 319.656C777.979 319.656 777.151 325.614 775.768 327.678C774.385 329.742 774.245 340.522 774.245 340.522L771.964 348.318C771.964 348.318 777.248 358.061 785.262 356.683C793.276 355.305 807.825 329.283 807.825 329.283L817.098 301.197L824.302 273.447L826.38 254.645L829.701 213.024L834.544 185.507C834.544 185.507 839.978 170.717 838.014 168.769Z" fill="black"/>
<path d="M837.213 167.391C837.213 167.391 834.72 166.363 832.369 169.346C830.017 172.328 825.579 173.721 825.579 173.721C825.579 173.721 800.383 177.047 799.414 179.796L787.648 180.373C787.648 180.373 783.491 180.832 783.078 188.052C782.664 195.272 780.435 195.965 780.435 195.965C780.435 195.965 775.592 203.076 776.032 206.744C776.472 210.413 772.298 212.243 772.298 212.243L789.577 249.482C789.577 249.482 790.132 264.848 786.935 270.464C783.738 276.08 777.802 300.964 777.802 300.964C777.802 300.964 780.295 300.504 780.154 301.883C780.013 303.261 777.107 318.278 777.107 318.278C777.107 318.278 776.279 324.236 774.896 326.3C773.513 328.364 773.372 339.143 773.372 339.143L771.171 346.976C771.171 346.976 776.455 356.719 784.46 355.348C792.466 353.977 807.032 327.941 807.032 327.941L816.305 299.855L823.509 272.142L825.579 253.34L828.908 211.726L833.751 184.209C833.751 184.209 839.15 169.346 837.213 167.391Z" fill="#65617D"/>
<path opacity="0.1" d="M748.326 256.133L740.259 260.721C740.259 260.721 727.983 261.041 719.211 259.262L714.737 257.621L713.857 257.293L714.781 257.533C719.414 258.671 723.033 258.649 725.86 257.862C737.23 254.696 735.97 239.155 735.548 235.64C735.548 235.29 735.477 235.063 735.46 234.976C735.458 234.961 735.458 234.947 735.46 234.932L735.53 235.02C735.681 235.234 735.855 235.436 736.05 235.625C736.208 235.782 736.379 235.931 736.56 236.07L740.568 242.714C740.568 242.714 740.568 242.809 740.568 242.991L748.326 256.133Z" fill="black"/>
<path d="M776.156 211.324L772.281 212.243L771.726 218.807C771.726 218.807 767.155 218.238 765.913 222.709C764.672 227.18 762.452 229.273 762.452 229.273C762.452 229.273 754.834 234.546 754.421 239.016L749.709 241.423C749.709 241.423 738.771 239.359 736.279 235.691C736.279 235.691 741.263 265.271 714.684 258.051C714.684 258.051 744.451 268.83 745.834 270.318C747.217 271.806 756.358 276.153 764.663 272.506C772.968 268.86 774.773 263.105 774.773 263.105C774.773 263.105 782.805 253.821 783.078 252.443C783.351 251.064 789.586 249.46 789.586 249.46L801.493 225.619L776.156 211.324Z" fill="#65617D"/>
<path opacity="0.1" d="M873.347 178.856L877.362 163.723C877.362 163.723 879.124 168.653 880.964 169.798C882.805 170.943 886.918 173.583 886.918 173.583C886.918 173.583 892.871 175.88 894.941 175.88C897.01 175.88 908.239 178.287 909.622 179.527C911.004 180.766 916.544 179.869 916.544 179.869C916.544 179.869 921.115 181.131 925.13 181.933C929.146 182.736 931.084 188.242 930.247 190.415C929.913 191.499 929.916 192.635 930.254 193.717C930.593 194.8 931.257 195.794 932.185 196.607C933.849 197.985 934.677 202.442 934.677 202.442C936.716 202.991 938.41 204.187 939.389 205.767C940.771 208.291 940.357 213.79 940.357 213.79L919.732 237.857C919.732 237.857 920.005 247.141 919.177 249.205C918.349 251.269 922.083 286.356 922.083 286.356L926.372 346.662C926.372 346.662 920.701 350.674 919.45 351.133C918.199 351.592 916.958 329.808 916.958 329.006C916.958 328.204 884.98 289.331 884.98 289.331C884.98 289.331 880.683 283.599 880.683 282.337C880.683 281.076 876.667 269.501 876.667 269.501L870.599 247.192L873.347 178.856Z" fill="black"/>
<path d="M942.075 212.513C942.075 213.301 942.022 213.826 942.022 213.826L921.405 237.893C921.405 237.893 921.687 247.185 920.859 249.249C920.375 250.445 921.431 262.785 922.409 272.915C923.105 280.208 923.765 286.392 923.765 286.392L925.58 311.976L928.045 346.706C928.045 346.706 922.374 350.717 921.132 351.177C919.89 351.636 918.64 329.852 918.64 329.042C918.64 328.233 886.636 289.361 886.636 289.361C886.636 289.361 882.347 283.621 882.347 282.359C882.347 281.097 878.331 269.516 878.331 269.516L872.246 247.163L875.011 178.826L877.363 163.693C877.363 163.693 880.824 168.631 882.647 169.768C884.47 170.906 888.591 173.554 888.591 173.554C888.591 173.554 894.545 175.851 896.623 175.851C898.701 175.851 909.912 178.258 911.304 179.497C912.695 180.737 918.226 179.84 918.226 179.84C918.226 179.84 922.788 181.102 926.804 181.904C930.819 182.706 932.757 188.213 931.929 190.386C931.593 191.47 931.594 192.606 931.933 193.689C932.272 194.772 932.937 195.766 933.867 196.578C935.522 197.949 936.359 202.412 936.359 202.412C938.397 202.964 940.09 204.159 941.071 205.738C942.013 207.547 942.101 210.726 942.075 212.513Z" fill="#65617D"/>
<path opacity="0.1" d="M792.457 519.479C790.299 520.209 788.133 520.887 785.966 521.58C779.176 519.939 772.835 518.006 772.835 518.006C779.403 518.201 785.954 518.692 792.457 519.479Z" fill="black"/>
<path opacity="0.1" d="M857.979 458.268C857.979 458.268 874.456 461.477 875.425 463.658L857.979 458.268Z" fill="black"/>
<path opacity="0.1" d="M794.43 468.129C794.43 468.129 785.843 470.193 794.157 474.321C802.47 478.448 794.43 468.129 794.43 468.129Z" fill="black"/>
<path opacity="0.1" d="M832.501 357.916C833.47 357.916 848.564 353.788 853.822 355.625C859.08 357.463 865.597 357.456 865.597 357.456L832.501 357.916Z" fill="black"/>
<path opacity="0.1" d="M834.491 371.043L834.342 372.181L821.431 400.142C821.431 400.142 819.352 408.624 817.547 413.438C816.415 416.71 815.515 420.034 814.852 423.393L826.301 364.713L834.491 371.043Z" fill="black"/>
<path d="M854.544 321.618L849.181 321.691H849.014L845.87 310.131C847.411 310.073 848.97 310.007 850.528 309.927L854.544 321.618Z" fill="#3F3D56"/>
<path d="M919.864 307.593L916.421 309.949L904.945 317.803C904.945 317.803 873.796 331.565 865.218 318.489C857.653 306.973 892.968 298.754 901.476 296.96C902.629 296.719 903.29 296.595 903.29 296.595L919.864 307.593Z" fill="#A5636D"/>
<path opacity="0.1" d="M786.82 194.908C786.82 194.908 792.906 197.205 794.289 200.414C795.671 203.623 786.82 194.908 786.82 194.908Z" fill="black"/>
<path opacity="0.1" d="M767.983 229.309C767.983 229.309 759.123 238.251 762.699 241.707C766.274 245.164 767.983 229.309 767.983 229.309Z" fill="black"/>
<path opacity="0.1" d="M926.372 199.955C926.372 199.955 918.067 200.64 917.786 206.606L926.372 199.955Z" fill="black"/>
<path opacity="0.1" d="M849.392 293.97C850.273 293.284 869.331 269.903 873.761 271.959L849.392 293.97Z" fill="black"/>
<path opacity="0.1" d="M885.121 141.938C885.126 146.432 883.785 150.857 881.22 154.818H880.973C878.886 154.453 877.803 152.44 876.209 151.171C875.228 150.399 873.979 149.9 872.638 149.744C871.298 149.589 869.932 149.784 868.732 150.303C867.518 150.903 866.531 151.772 865.882 152.812C865.233 153.852 864.948 155.022 865.06 156.189C864.003 152.542 864.337 148.611 863.298 144.936C862.259 141.26 859.168 137.533 854.923 137.467C853.091 137.467 850.96 138.029 849.639 136.891C848.838 136.206 848.679 135.126 848.08 134.295C845.042 130.233 835.812 132.289 832.043 134.375C828.274 136.461 823.897 139.787 819.212 141.573C819.401 134.407 822.988 127.589 829.198 122.594C835.407 117.6 843.74 114.829 852.396 114.881C861.053 114.932 869.337 117.802 875.458 122.871C881.58 127.939 885.048 134.799 885.112 141.967L885.121 141.938Z" fill="black"/>
<path d="M848.089 133.58C848.688 134.412 848.846 135.491 849.648 136.177C850.969 137.307 853.1 136.724 854.932 136.753C859.177 136.811 862.277 140.538 863.307 144.214C864.337 147.889 864.003 151.798 865.068 155.467C864.959 154.301 865.245 153.133 865.893 152.094C866.542 151.056 867.528 150.188 868.741 149.589C869.939 149.069 871.304 148.873 872.643 149.029C873.983 149.184 875.23 149.684 876.209 150.456C877.803 151.711 878.851 153.724 880.982 154.103C883.113 154.482 885.086 152.805 885.843 150.981C886.601 149.158 886.539 147.16 887.032 145.271C887.975 141.69 890.793 138.758 892.316 135.36C894.174 131.222 894.123 126.662 892.175 122.553C891.136 120.365 889.595 118.462 888.538 116.31C886.953 113.043 886.53 109.36 884.593 106.246C881.334 101.031 873.655 98.4275 867.349 100.411C864.337 101.352 861.722 103.168 858.666 103.978C854.58 105.064 850.203 104.247 845.967 103.759C841.731 103.27 837.045 103.226 833.637 105.531C829.718 108.186 828.644 113.174 824.962 116.091C823.413 117.317 821.493 118.097 819.863 119.227C818.234 120.358 816.825 122.043 817.01 123.88C817.257 126.258 820.066 128.417 819.027 130.612C818.653 131.251 818.129 131.821 817.486 132.289C814.405 134.969 812.111 138.201 810.784 141.734C818.199 143.652 826.213 136.884 832.017 133.711C835.83 131.575 845.059 129.511 848.089 133.58Z" fill="#4C3E42"/>
<path opacity="0.1" d="M919.864 307.593L916.42 309.949C913.382 305.755 900.903 297.383 900.903 297.383L901.44 296.953C902.594 296.712 903.254 296.588 903.254 296.588L919.864 307.593Z" fill="black"/>
<path d="M923.193 303.371C923.193 303.371 921.951 305.923 920.674 308.133C919.397 310.343 918.032 312.341 917.926 310.715C917.786 307.498 901.731 296.719 901.731 296.719L903.906 294.969L906.434 292.934L923.193 303.371Z" fill="#E7EFFD"/>
<path opacity="0.1" d="M923.748 286.399L925.562 311.984C921.264 306.448 909.454 292.249 901.863 292.708L920.278 275.205C921.047 274.499 921.754 273.748 922.391 272.958C923.087 280.237 923.748 286.399 923.748 286.399Z" fill="black"/>
<path opacity="0.1" d="M923.193 303.371C923.193 303.371 921.951 305.923 920.674 308.133C915.848 302.649 909.225 296.18 903.941 294.969L906.469 292.934L923.193 303.371Z" fill="black"/>
<path d="M937.037 210.595L942.022 213.804C942.022 213.804 950.326 213.921 951.154 219.639C951.982 225.356 959.6 228.011 959.6 228.011C959.6 228.011 965.28 232.708 965.28 234.888C965.28 237.069 969.569 240.964 969.569 241.306C969.569 241.649 973.726 248.643 973.171 249.905C972.616 251.167 977.574 256.673 976.077 258.737C974.827 260.588 973.718 262.503 972.757 264.469C972.757 264.469 966.249 274.789 962.92 276.736C959.591 278.683 944.373 295.078 944.373 295.078C944.373 295.078 928.037 310.671 928.037 315.499C928.037 315.499 912.114 293.481 902.7 294.057L921.114 276.517C921.114 276.517 924.294 273.651 924.435 271.93C924.576 270.209 933.294 262.296 937.451 261.953C937.451 261.953 938.138 257.249 936.341 257.14C934.545 257.03 933.021 253.355 933.021 253.355C933.021 253.355 920.833 241.43 920.692 233.86C920.551 226.29 937.037 210.595 937.037 210.595Z" fill="#65617D"/>
<path opacity="0.1" d="M944.373 221.535C944.373 221.535 932.739 228.638 935.232 230.936C937.724 233.233 944.373 221.535 944.373 221.535Z" fill="black"/>
<path opacity="0.1" d="M944.928 250.86C944.928 250.86 966.522 245.128 968.706 250.86H944.928Z" fill="black"/>
<path opacity="0.1" d="M792.562 220.135C792.562 220.135 792.562 246.273 789.859 248.855C787.155 251.436 792.562 220.135 792.562 220.135Z" fill="black"/>
<path opacity="0.1" d="M917.372 228.558L921.388 237.9C921.388 237.9 922.981 228.733 917.372 228.558Z" fill="black"/>
<g opacity="0.1">
<path opacity="0.1" d="M819.52 128.344C820.533 126.192 817.882 124.085 817.53 121.78C817.182 122.43 817.031 123.141 817.089 123.851C817.265 125.594 818.851 127.213 819.229 128.825C819.344 128.672 819.441 128.511 819.52 128.344Z" fill="black"/>
<path opacity="0.1" d="M865.43 153.038C864.434 149.392 864.725 145.592 863.721 141.982C862.717 138.372 859.591 134.572 855.346 134.514C853.514 134.514 851.383 135.068 850.062 133.938C849.26 133.252 849.102 132.173 848.503 131.341C845.473 127.279 836.244 129.336 832.466 131.421C826.803 134.536 819.027 141.056 811.761 139.582C811.418 140.275 811.092 140.975 810.819 141.697C818.234 143.615 826.248 136.847 832.052 133.675C835.83 131.596 845.051 129.533 848.089 133.602C848.688 134.433 848.846 135.513 849.648 136.198C850.969 137.329 853.1 136.745 854.932 136.775C859.177 136.833 862.277 140.56 863.307 144.235C864.337 147.911 864.003 151.82 865.068 155.489C864.99 154.66 865.113 153.827 865.43 153.038Z" fill="black"/>
<path opacity="0.1" d="M886.249 148.735C885.491 150.558 883.519 152.229 881.387 151.857C879.256 151.485 878.217 149.479 876.623 148.21C875.64 147.44 874.391 146.943 873.051 146.789C871.71 146.634 870.345 146.831 869.146 147.35C867.991 147.919 867.042 148.734 866.396 149.71C865.751 150.686 865.432 151.787 865.473 152.9C866.029 151.499 867.19 150.317 868.732 149.581C869.93 149.062 871.295 148.866 872.634 149.021C873.974 149.177 875.221 149.676 876.2 150.449C877.794 151.704 878.842 153.716 880.973 154.096C883.105 154.475 885.077 152.797 885.835 150.974C886.226 149.9 886.48 148.795 886.592 147.678C886.501 148.035 886.386 148.388 886.249 148.735Z" fill="black"/>
<path opacity="0.1" d="M892.757 133.121C891.198 136.519 888.354 139.451 887.473 143.025C887.279 143.754 887.173 144.483 887.068 145.213C888.01 141.654 890.819 138.729 892.352 135.338C893.046 133.811 893.476 132.21 893.629 130.583C893.42 131.447 893.128 132.295 892.757 133.121Z" fill="black"/>
</g>
<path d="M692.677 216.138C692.867 216.138 693.021 216.011 693.021 215.853C693.021 215.696 692.867 215.569 692.677 215.569C692.487 215.569 692.333 215.696 692.333 215.853C692.333 216.011 692.487 216.138 692.677 216.138Z" fill="#E6E8EC"/>
<path d="M415.907 375.878C415.907 375.878 425.594 370.124 435.66 373.69C435.66 373.69 432.842 378.635 420.337 378.57L415.907 375.878Z" fill="#31CF2B"/>
<path d="M414.701 376.214C414.701 376.214 412.111 385.863 419.985 392.12C419.985 392.12 424.388 388.036 419.395 378.533L414.701 376.214Z" fill="#31CF2B"/>
<path d="M401.86 367.433C401.86 367.433 402.221 359.287 424.494 361.278C424.494 361.278 424.846 366.521 417.184 369.249C409.522 371.977 405.867 370 401.86 367.433Z" fill="#31CF2B"/>
<path d="M400.495 367.397C400.495 367.397 391.248 370.182 400.39 387.124C400.39 387.124 406.554 385.782 407.294 378.905C408.034 372.028 404.67 369.789 400.495 367.397Z" fill="#31CF2B"/>
<path d="M387.426 356.297C387.426 356.297 385.542 342.972 408.245 343.621C408.245 343.621 410.412 355.669 391.574 359.381L387.426 356.297Z" fill="#31CF2B"/>
<path d="M371.768 341.681C371.768 341.681 374.172 326.431 397.008 330.231C397.008 330.231 397.695 343.359 375.625 345.174L371.768 341.681Z" fill="#31CF2B"/>
<path d="M360.116 326.424C360.116 326.424 364.625 311.473 387.25 315.215C387.25 315.215 382.53 328.648 361.71 329.071L360.116 326.424Z" fill="#31CF2B"/>
<path d="M349.029 311.517C349.029 311.517 353.432 296.041 375.246 299.957C375.246 299.957 368.694 314.733 350.587 314.084L349.029 311.517Z" fill="#31CF2B"/>
<path d="M341.657 297.259C341.657 297.259 344.696 278.421 365.092 281.907C365.092 281.907 360.019 299.133 343.287 299.935L341.657 297.259Z" fill="#31CF2B"/>
<path d="M334.577 279.967C334.577 279.967 338.39 260.939 359.042 265.782C359.042 265.782 351.864 283.876 336.144 282.556L334.577 279.967Z" fill="#31CF2B"/>
<path d="M329.936 263.835C329.936 263.835 336.505 244.72 352.322 244.727C352.322 244.727 345.629 264.907 331.433 267.576L329.936 263.835Z" fill="#31CF2B"/>
<path d="M326.739 248.016C326.739 248.016 333.784 225.035 346.713 226.377C346.713 226.377 341.913 243.925 327.338 251.539L326.739 248.016Z" fill="#31CF2B"/>
<path d="M324.458 229.09C324.458 229.09 331.168 209.91 343.833 208.757C343.833 208.757 339.526 227.552 324.977 233.999L324.458 229.09Z" fill="#31CF2B"/>
<path d="M322.106 211.478C322.106 211.478 330.693 192.224 339.059 191.531C339.059 191.531 335.81 210.325 323.084 214.563L322.106 211.478Z" fill="#31CF2B"/>
<path d="M320.292 195.068C320.292 195.068 325.162 174.29 333.45 172.321C333.45 172.321 333.088 189.197 321.208 196.578L320.292 195.068Z" fill="#31CF2B"/>
<path d="M316.144 173.648C316.144 173.648 321.508 157.042 328.174 154.329C328.174 154.329 327.725 173.714 317.906 177.608L316.144 173.648Z" fill="#31CF2B"/>
<path d="M312.877 159.595L310.305 130.692C310.305 130.692 323.965 152.134 314.013 164.649L312.877 159.595Z" fill="#31CF2B"/>
<path d="M301.754 131.144C301.754 131.144 291.661 110.308 289.425 109.199C289.425 109.199 307.919 122.327 307.038 140.027L301.754 131.144Z" fill="#31CF2B"/>
<path d="M386.801 356.216C386.801 356.216 370.667 354.991 372.014 373.763C372.014 373.763 386.616 375.222 390.632 359.571L386.801 356.216Z" fill="#31CF2B"/>
<path d="M370.984 341.2C370.984 341.2 352.428 341.74 354.832 360.891C354.832 360.891 370.508 362.7 374.815 344.686L370.984 341.2Z" fill="#31CF2B"/>
<path d="M359.993 327.678C359.993 327.678 342.846 321.669 332.851 338.888C332.851 338.888 348.659 343.847 361.605 330.355L359.993 327.678Z" fill="#31CF2B"/>
<path d="M348.659 311.67C348.659 311.67 331.089 305.259 321.728 322.07C321.728 322.07 339.931 326.621 350.2 314.237L348.659 311.67Z" fill="#31CF2B"/>
<path d="M341.895 297.66C341.895 297.66 324.696 285.057 312.067 298.754C312.067 298.754 329.522 309.015 342.794 300.555L341.895 297.66Z" fill="#31CF2B"/>
<path d="M335.501 279.493C335.501 279.493 318.179 266.591 305.691 281.054C305.691 281.054 324.942 291.476 336.224 282.286L335.501 279.493Z" fill="#31CF2B"/>
<path d="M331.627 263.229C331.627 263.229 317.985 246.878 303.022 251.094C303.022 251.094 317.184 268.422 331.662 267.138L331.627 263.229Z" fill="#31CF2B"/>
<path d="M327.109 247.899C327.109 247.899 313.168 227.187 301.085 231.242C301.085 231.242 311.177 247.177 327.611 251.436L327.109 247.899Z" fill="#31CF2B"/>
<path d="M325.294 227.982C325.294 227.982 311.204 211.784 298.821 214.213C298.821 214.213 310.481 230.717 326.809 232.752L325.294 227.982Z" fill="#31CF2B"/>
<path d="M323.498 211.062C323.498 211.062 312.313 192.742 303.903 192.829C303.903 192.829 309.724 211.193 322.943 214.205L323.498 211.062Z" fill="#31CF2B"/>
<path d="M320.688 194.645C320.688 194.645 308.359 176.121 299.711 176.361C299.711 176.361 306.334 192.326 320.38 196.323L320.688 194.645Z" fill="#31CF2B"/>
<path d="M318.038 174.742C318.038 174.742 308.729 159.383 301.543 157.844C301.543 157.844 306.712 176.755 317.289 178.921L318.038 174.742Z" fill="#31CF2B"/>
<path d="M311.829 159.077L291.521 135.476C291.521 135.476 297.544 159.193 314.841 163.591L311.829 159.077Z" fill="#31CF2B"/>
<path d="M297.448 133.23C297.448 133.23 274.55 121.189 273.669 119.162C273.669 119.162 285.876 136.665 307.047 139.137L297.448 133.23Z" fill="#31CF2B"/>
<path d="M295.845 127.542C295.845 127.542 269.301 107.974 262.767 108.2C262.767 108.2 283.903 108.332 296.408 126.433L295.845 127.542Z" fill="#31CF2B"/>
<path d="M317.932 177.776L316.999 177.908C310.746 146.875 302.908 128.665 294.85 126.637L295.123 125.908C303.639 128.037 311.521 145.986 317.932 177.776Z" fill="#444053"/>
<path d="M328.447 252.122L327.047 252.268C326.616 249.351 326.255 246.39 325.955 243.429C323.419 217.655 320.239 194.018 316.682 176.332L317.457 175.472C320.979 193.187 324.828 217.524 327.373 243.297C327.655 246.28 328.025 249.248 328.447 252.122Z" fill="#444053"/>
<path d="M442.891 389.896C442.636 389.808 417.404 381.428 390.641 360.359C374.971 348.03 361.758 333.724 351.495 317.971C338.663 298.28 330.262 273.833 326.721 249.941L328.218 250.466C336.144 304.085 367.444 339.923 391.882 359.177C418.382 380.057 443.331 388.35 443.578 388.444L442.891 389.896Z" fill="#444053"/>
<g opacity="0.7">
<path opacity="0.7" d="M460.425 366.106C460.425 366.106 471.751 363.006 480.064 368.87C480.064 368.87 475.599 372.903 463.684 369.752L460.425 366.106Z" fill="#31CF2B"/>
<path opacity="0.7" d="M459.148 366.12C459.148 366.12 453.212 374.697 458.496 382.617C458.496 382.617 464.159 379.795 462.812 369.49L459.148 366.12Z" fill="#31CF2B"/>
<path opacity="0.7" d="M450.042 354.583C450.042 354.583 453.318 346.888 473.82 354.284C473.82 354.284 472.27 359.389 463.974 360.118C455.678 360.847 452.948 358.018 450.042 354.583Z" fill="#31CF2B"/>
<path opacity="0.7" d="M448.756 354.269C448.756 354.269 438.919 354.656 441.57 373.078C441.57 373.078 447.893 373.311 451.108 366.937C454.322 360.563 451.883 357.522 448.756 354.269Z" fill="#31CF2B"/>
<path opacity="0.7" d="M440.258 340.412C440.258 340.412 443.252 327.226 464.688 333.44C464.688 333.44 462.424 345.474 443.111 344.38L440.258 340.412Z" fill="#31CF2B"/>
<path opacity="0.7" d="M430.561 322.581C430.561 322.581 438.338 308.614 458.743 317.869C458.743 317.869 454.701 330.537 432.966 326.862L430.561 322.581Z" fill="#31CF2B"/>
<path opacity="0.7" d="M424.916 305.143C424.916 305.143 434.604 291.979 454.859 301.124C454.859 301.124 445.524 312.793 425.498 308.096L424.916 305.143Z" fill="#31CF2B"/>
<path opacity="0.7" d="M419.694 288.179C419.694 288.179 429.434 274.483 448.888 283.599C448.888 283.599 437.325 296.092 420.249 291.009L419.694 288.179Z" fill="#31CF2B"/>
<path opacity="0.7" d="M417.783 272.747C417.783 272.747 427.47 255.499 445.647 263.864C445.647 263.864 434.612 279.055 418.346 275.701L417.783 272.747Z" fill="#31CF2B"/>
<path opacity="0.7" d="M417.228 254.5C417.228 254.5 427.708 237.273 445.683 246.988C445.683 246.988 432.323 262.493 417.783 257.322L417.228 254.5Z" fill="#31CF2B"/>
<path opacity="0.7" d="M418.602 237.937C418.602 237.937 431.741 221.309 446.836 225.211C446.836 225.211 433.194 242.831 418.655 241.883L418.602 237.937Z" fill="#31CF2B"/>
<path opacity="0.7" d="M421.226 222.06C421.226 222.06 436.198 201.851 448.069 206.329C448.069 206.329 437.175 221.892 420.548 225.575L421.226 222.06Z" fill="#31CF2B"/>
<path opacity="0.7" d="M425.859 203.426C425.859 203.426 439.157 186.776 451.645 188.789C451.645 188.789 440.786 205.672 424.573 208.247L425.859 203.426Z" fill="#31CF2B"/>
<path opacity="0.7" d="M429.927 186.039C429.927 186.039 445.049 169.769 453.283 171.169C453.283 171.169 443.428 188.308 429.76 189.226L429.927 186.039Z" fill="#31CF2B"/>
<path opacity="0.7" d="M434.093 169.922C434.093 169.922 446.202 151.288 454.833 151.448C454.833 151.448 448.421 167.493 434.419 171.592L434.093 169.922Z" fill="#31CF2B"/>
<path opacity="0.7" d="M437.836 148.451C437.836 148.451 448.915 133.923 456.259 132.968C456.259 132.968 448.862 151.368 438.091 152.659L437.836 148.451Z" fill="#31CF2B"/>
<path opacity="0.7" d="M439.756 134.222L447.682 106.005C447.682 106.005 453.027 129.832 439.051 139.356L439.756 134.222Z" fill="#31CF2B"/>
<path opacity="0.7" d="M439.359 104.328C439.359 104.328 437.211 81.9452 435.458 80.3334C435.458 80.3334 448.43 97.443 441.182 114.1L439.359 104.328Z" fill="#31CF2B"/>
<path opacity="0.7" d="M439.694 340.164C439.694 340.164 424.723 335.008 419.28 353.292C419.28 353.292 432.675 358.317 442.178 344.329L439.694 340.164Z" fill="#31CF2B"/>
<path opacity="0.7" d="M429.989 321.924C429.989 321.924 412.085 317.869 407.488 336.773C407.488 336.773 421.799 342.367 432.393 326.227L429.989 321.924Z" fill="#31CF2B"/>
<path opacity="0.7" d="M424.353 306.31C424.353 306.31 410.147 296.347 394.41 310.328C394.41 310.328 407.717 318.956 424.925 309.263L424.353 306.31Z" fill="#31CF2B"/>
<path opacity="0.7" d="M419.282 288.237C419.282 288.237 404.821 277.786 389.841 291.548C389.841 291.548 405.578 300.373 419.837 291.074L419.282 288.237Z" fill="#31CF2B"/>
<path opacity="0.7" d="M417.862 273.192C417.862 273.192 405.964 256.921 388.994 266.883C388.994 266.883 401.966 280.988 417.677 276.175L417.862 273.192Z" fill="#31CF2B"/>
<path opacity="0.7" d="M418.286 254.266C418.286 254.266 406.38 237.689 389.224 248.432C389.224 248.432 403.861 263.127 417.934 257.132L418.286 254.266Z" fill="#31CF2B"/>
<path opacity="0.7" d="M420.416 237.784C420.416 237.784 413.274 218.822 397.466 219.15C397.466 219.15 404.766 239.191 419.042 241.562L420.416 237.784Z" fill="#31CF2B"/>
<path opacity="0.7" d="M421.623 222.038C421.623 222.038 415.749 198.831 402.759 199.729C402.759 199.729 406.669 217.429 420.83 225.539L421.623 222.038Z" fill="#31CF2B"/>
<path opacity="0.7" d="M427.048 202.573C427.048 202.573 419.412 183.611 406.713 182.881C406.713 182.881 411.926 201.523 426.775 207.481L427.048 202.573Z" fill="#31CF2B"/>
<path opacity="0.7" d="M431.407 185.981C431.407 185.981 427.312 165.735 419.245 163.759C419.245 163.759 418.205 182.721 429.751 188.862L431.407 185.981Z" fill="#31CF2B"/>
<path opacity="0.7" d="M434.665 169.615C434.665 169.615 429.531 148.888 421.209 147.007C421.209 147.007 421.79 163.876 433.776 171.154L434.665 169.615Z" fill="#31CF2B"/>
<path opacity="0.7" d="M439.245 149.968C439.245 149.968 435.872 133.011 429.557 129.759C429.557 129.759 427.699 149.093 437.017 153.767L439.245 149.968Z" fill="#31CF2B"/>
<path opacity="0.7" d="M438.945 133.478L428.034 105.947C428.034 105.947 425.26 130.079 440.196 138.539L438.945 133.478Z" fill="#31CF2B"/>
<path opacity="0.7" d="M434.498 105.261C434.498 105.261 416.964 88.1224 416.885 85.9636C416.885 85.9636 422.248 105.655 441.543 113.254L434.498 105.261Z" fill="#31CF2B"/>
<path opacity="0.7" d="M435.009 99.4339C435.009 99.4339 416.699 74.2072 410.35 72.8142C410.35 72.8142 430.5 78.1527 435.889 98.515L435.009 99.4339Z" fill="#31CF2B"/>
<path opacity="0.7" d="M438.047 152.834L437.114 152.724C442.292 121.561 441.323 102.234 434.383 98.3181L434.921 97.6763C442.274 101.826 443.358 120.89 438.047 152.834Z" fill="#444053"/>
<path opacity="0.7" d="M421.385 226.407L419.993 226.195C420.627 223.314 421.341 220.361 422.133 217.487C428.967 192.26 434.463 168.908 437.378 151.12L438.426 150.493C435.467 168.281 430.359 192.457 423.507 217.713C422.732 220.63 422.01 223.54 421.385 226.407Z" fill="#444053"/>
<path opacity="0.7" d="M481.147 386.132C480.936 385.994 459.853 371.765 441.878 345.065C431.329 329.436 423.841 312.52 419.694 294.947C414.516 272.98 415.291 247.542 420.478 223.898L421.719 224.766C410.051 277.918 427.004 319.838 443.446 344.241C461.244 370.7 482.081 384.776 482.292 384.915L481.147 386.132Z" fill="#444053"/>
</g>
<path d="M270.684 318.949C268.614 319.655 266.463 320.188 264.264 320.538C260.421 321.134 256.522 321.439 252.613 321.45C252.727 322.303 252.815 323.098 252.903 323.82C253.115 325.804 253.238 327.168 253.238 327.168L249.107 326.935L215.043 325.009L195.122 322.566C196.084 323.635 197.128 324.651 198.249 325.607C199.409 326.624 200.752 327.488 202.229 328.167C202.229 328.167 220.204 340.223 223.313 340.332C223.753 340.332 223.894 340.697 223.823 341.273C231.388 341.273 254.911 342.184 248.385 353.029C247.306 354.962 245.402 356.497 243.04 357.339C235.492 359.987 224.105 355.224 218.24 352.3C217.667 353.226 217.121 354.087 216.637 354.823C215.642 356.377 214.946 357.405 214.946 357.405L214.356 357.055L184.131 339.231L177.509 334.578C175.563 334.504 173.637 334.227 171.775 333.754L170.895 333.52C170.857 333.584 170.824 333.65 170.798 333.717C170.557 334.286 170.377 334.872 170.261 335.467C170.261 335.555 170.261 335.642 170.261 335.73C170.137 336.409 170.055 337.093 170.014 337.779C170.014 338.246 169.97 338.742 169.97 339.238C169.917 349.171 174.726 365.136 174.726 365.136C174.726 365.136 187.187 391.456 182.766 397.532C182.538 397.84 182.239 398.107 181.886 398.319C180.327 399.253 179.393 400.916 178.909 402.892C177.262 409.339 180.151 419.177 180.151 419.177C180.151 419.177 179.886 419.542 179.437 420.111C178.466 421.398 177.37 422.617 176.161 423.758C175.976 423.933 175.783 424.115 175.58 424.283C175.035 424.757 174.446 425.196 173.819 425.595C173.933 425.88 174.056 426.172 174.18 426.485C174.303 426.799 174.462 427.287 174.585 427.725C175.566 431.309 175.181 435.057 173.484 438.453C172.33 440.929 171.583 443.521 171.265 446.162C170.692 450.996 170.843 455.871 171.714 460.675C171.582 460.617 171.467 460.558 171.335 460.507C161.595 456.292 151.993 451.889 142.528 447.3C139.754 445.972 136.998 444.616 134.259 443.252C130.889 441.57 127.533 439.868 124.193 438.147C119.789 435.871 115.386 433.538 110.983 431.153L108.922 430.015L108.129 429.57C107.011 428.95 105.91 428.33 104.8 427.703C100.247 422.83 96.0872 417.714 92.3475 412.388C91.7222 411.461 91.1586 410.579 90.6918 409.769V409.726L90.3924 409.193L89.1506 408.829C86.8169 408.15 85.3373 407.676 85.3373 407.676C86.4144 404.422 86.9303 401.058 86.8697 397.685C86.7993 391.121 84.6064 382.369 75.5707 375.353C62.2196 364.902 60.379 354.583 60.1853 350.622C60.1853 350.345 60.1853 350.097 60.1853 349.893C60.1809 349.56 60.1985 349.226 60.2381 348.894L61.2597 348.084C58.6705 347.654 56.2399 347.457 56.2399 347.457C56.2399 347.457 65.0994 320.91 80.0181 312.049C87.4157 307.673 93.5716 300.38 97.9222 294.123C105.859 282.814 114.771 271.995 124.589 261.749L127.275 258.941L128.059 258.117L128.226 257.949L128.438 257.716C128.073 257.259 127.704 256.807 127.328 256.359L127.081 256.06C125.91 254.602 124.906 253.143 125.065 251.4C125.065 251.4 125.065 251.364 125.065 251.349C125.065 251.225 125.065 251.108 125.065 250.977C125.102 250.686 125.167 250.399 125.258 250.116C125.288 250.163 125.324 250.207 125.364 250.248C126.623 247.214 131.476 245.872 135.051 244.194C143.479 240.271 147.073 231.687 148.878 223.701C150.278 217.487 151.441 210.522 157.253 206.533C161.005 203.966 166.06 203.12 169.856 200.574C172.052 198.967 173.867 197.036 175.21 194.879C176.091 193.639 176.848 192.355 177.667 191.115C181.419 185.5 186.351 180.278 192.876 176.916C199.402 173.554 207.681 172.248 214.832 174.509C217.588 175.377 220.116 176.697 222.758 177.667C224.389 178.218 226.074 178.652 227.795 178.965C233.176 180.008 238.839 180.278 243.894 182.138C252.111 185.157 257.456 191.837 262.335 198.182C264.863 201.464 268.835 206.263 271.089 211.091C271.089 210.916 271.089 210.756 271.089 210.588C272.176 212.714 272.774 214.99 272.85 217.298C272.894 218.28 272.767 219.263 272.472 220.215C271.661 222.694 269.592 224.262 266.994 225.415L266.58 225.582C266.025 225.819 265.454 226.031 264.872 226.217C264.783 226.618 264.687 227.027 264.581 227.42C264.537 227.588 264.484 227.763 264.431 227.931C264.317 228.339 264.185 228.74 264.044 229.141C262.161 234.354 258.489 239.001 253.476 242.517C250.003 244.977 245.99 246.859 241.657 248.06C241.349 248.147 241.023 248.213 240.715 248.293C240.453 248.904 240.078 249.477 239.605 249.992C239.262 250.356 238.859 250.678 238.407 250.948C238.126 251.106 237.832 251.247 237.527 251.371C237.452 251.41 237.372 251.442 237.289 251.466C234.118 252.647 229.777 251.721 226.721 249.956C226.562 249.868 226.412 249.766 226.263 249.672C226.263 250.087 226.184 250.525 226.095 250.977C226.007 251.429 225.946 251.706 225.849 252.086C225.752 252.465 225.717 252.647 225.655 252.917C225.593 253.187 225.549 253.369 225.497 253.581L225.391 253.953C223.646 260.992 220.318 267.697 215.58 273.717C214.893 274.579 214.149 275.409 213.352 276.204L211.168 278.961V279.333C211.582 285.678 209.063 291.592 205.505 296.683C204.314 298.37 203.005 300 201.586 301.562L202.079 301.803C207.011 304.129 216.734 308.264 222.881 307.914C222.881 307.914 246.131 310.401 248.826 309.154C249.196 308.979 249.557 309.22 249.891 309.737C253.652 307.841 262.3 303.823 269.125 303.29C273.898 302.911 277.782 304.231 278.504 309.125C279.226 314.018 275.669 317.176 270.684 318.949Z" fill="url(#paint0_linear)"/>
<path d="M143.418 419.236C144.906 421.339 145.794 423.696 146.014 426.126C146.234 428.557 145.78 430.997 144.686 433.26C142.546 437.702 142.308 443.237 142.528 447.3C139.754 445.972 136.998 444.616 134.259 443.252C130.889 441.57 127.533 439.868 124.193 438.147C119.789 435.871 115.386 433.538 110.983 431.153L108.922 430.015L108.129 429.57C108.06 429.464 107.974 429.366 107.874 429.278C106.694 428.243 99.8156 420.074 95.7292 413.875C94.9895 412.738 94.3466 411.687 93.8358 410.725V410.674C92.9551 409.055 92.5412 407.756 92.8054 407.166C93.1256 406.236 93.6689 405.369 94.4028 404.617C95.1366 403.866 96.0461 403.244 97.0767 402.79C102.149 400.602 110.287 402.622 118.336 405.838C125.262 408.737 131.899 412.085 138.187 415.852L138.9 416.282L138.97 416.326C141.612 417.879 143.145 418.908 143.145 418.908C143.145 418.908 143.259 419.024 143.418 419.236Z" fill="#FBBEBE"/>
<path opacity="0.05" d="M142.079 418.266C143.57 420.371 144.46 422.73 144.68 425.164C144.9 427.597 144.444 430.04 143.347 432.305C141.207 436.747 140.969 442.282 141.19 446.352C138.418 445.014 135.662 443.663 132.92 442.297C129.544 440.614 126.189 438.913 122.854 437.191C118.451 434.909 114.047 432.575 109.688 430.19L107.627 429.052L106.834 428.607C106.763 428.502 106.677 428.405 106.579 428.316C105.399 427.287 98.5209 419.119 94.4346 412.913C93.6948 411.775 93.0519 410.725 92.5411 409.762V409.718C91.6604 408.092 91.2465 406.801 91.5107 406.203C91.8323 405.274 92.3761 404.408 93.1099 403.656C93.8436 402.904 94.7523 402.282 95.782 401.827C100.855 399.639 108.992 401.659 117.041 404.876C123.967 407.774 130.605 411.123 136.892 414.889L137.605 415.319L137.676 415.363C140.318 416.917 141.85 417.945 141.85 417.945C141.85 417.945 141.921 418.054 142.079 418.266Z" fill="black"/>
<path d="M174.506 435.952C174.249 437.2 173.833 438.423 173.264 439.598C172.289 441.713 171.618 443.917 171.265 446.162C170.571 450.928 170.595 455.746 171.335 460.507C161.595 456.292 151.993 451.889 142.528 447.3C139.754 445.972 136.998 444.616 134.259 443.252C133.642 439.372 132.762 435.959 131.766 435.12C130.463 433.982 123.021 425.172 118.398 418.222C117.799 417.347 117.279 416.501 116.795 415.699V415.662C116.61 415.341 116.434 415.035 116.267 414.729C115.078 412.614 114.444 410.965 114.761 410.17C115.379 408.442 116.651 406.923 118.389 405.838C126.201 401.112 142.44 407.508 154.911 413.861L155.219 414.014C157.579 415.232 159.816 416.435 161.824 417.558L162.995 418.215C168.156 421.132 171.582 423.4 171.582 423.4C172.433 424.487 173.116 425.658 173.616 426.886C173.91 427.579 174.154 428.285 174.347 429.001C174.956 431.286 175.01 433.649 174.506 435.952Z" fill="#FBBEBE"/>
<path opacity="0.1" d="M95.7732 413.875C102.176 415.728 111.625 418.186 116.768 418.251C117.301 418.265 117.834 418.243 118.362 418.186C121.982 417.777 133.14 418.434 143.382 419.199C147.486 419.499 151.441 419.812 154.708 420.089L162.916 420.819V418.193C160.635 416.895 157.984 415.451 155.148 413.992C142.634 407.589 126.192 401.047 118.318 405.809C107.231 401.375 95.9757 399.245 92.7789 407.137C92.409 408.165 93.7565 410.776 95.7732 413.875Z" fill="black"/>
<path d="M65.0113 352.752C65.1874 356.683 66.9664 366.886 79.7098 377.191C95.967 390.319 89.0361 409.193 89.0361 409.193C89.0361 409.193 108.411 415.494 116.768 415.662C117.301 415.676 117.834 415.654 118.363 415.597C123.374 415.02 143.294 416.545 154.743 417.5L162.951 418.229V362.423L73.1752 344.365L65.0465 351.075C64.9916 351.633 64.9799 352.193 65.0113 352.752Z" fill="#5C5C8E"/>
<g opacity="0.1">
<path opacity="0.1" d="M161.48 417.537L162.951 417.66V418.259L154.743 417.529C146.526 416.844 133.968 415.866 125.681 415.582C131.414 415.159 150.393 416.61 161.48 417.537Z" fill="black"/>
<path opacity="0.1" d="M65.0465 351.111L73.1752 344.401L78.6001 345.488L71.8277 351.111C71.7845 351.67 71.7845 352.23 71.8277 352.789C72.0039 356.72 73.7828 366.915 86.5262 377.228C102.783 390.355 95.8525 409.222 95.8525 409.222C95.8525 409.222 111.881 414.437 121.066 415.509C120.183 415.506 119.301 415.547 118.424 415.633C117.896 415.69 117.363 415.712 116.83 415.699C108.473 415.524 89.0977 409.222 89.0977 409.222C89.0977 409.222 96.0286 390.355 79.7714 377.228C66.9664 366.915 65.1874 356.72 65.0113 352.81C64.9787 352.244 64.9905 351.676 65.0465 351.111Z" fill="black"/>
</g>
<path d="M244.44 313.34C244.44 313.34 271.591 297.748 273.573 311.779C275.554 325.811 244.44 323.842 244.44 323.842V313.34Z" fill="#FBBEBE"/>
<path d="M197.623 302.999C197.623 302.999 212.304 311.021 220.433 310.547C220.433 310.547 242.626 313.012 245.206 311.779C247.786 310.547 249.372 329.589 249.372 329.589L212.903 327.452L189.512 324.499C189.512 324.499 177.817 318.591 177.817 313.501C177.817 308.41 197.623 302.999 197.623 302.999Z" fill="#F7CDDD"/>
<path d="M197.623 302.999C197.623 302.999 212.304 311.021 220.433 310.547C220.433 310.547 242.626 313.012 245.206 311.779C247.786 310.547 249.372 329.589 249.372 329.589L212.903 327.452L189.512 324.499C189.512 324.499 177.817 318.591 177.817 313.501C177.817 308.41 197.623 302.999 197.623 302.999Z" fill="#31CF2B"/>
<path d="M219.147 343.577C219.147 343.577 252.163 342.447 244.766 355.181C237.368 367.914 212.357 352.453 212.357 352.453L219.147 343.577Z" fill="#FBBEBE"/>
<path d="M185.945 316.454C185.945 316.454 212.7 299.877 208.94 279.69C205.179 259.503 185.945 295.122 185.945 295.122V316.454Z" fill="#5C5C8E"/>
<path d="M193.361 224.933C193.366 232.195 196.776 239.171 202.872 244.391C206.16 247.203 210.119 249.416 214.497 250.889C215.909 251.378 217.363 251.778 218.847 252.086C220.424 252.423 222.028 252.666 223.647 252.815C224.81 252.91 225.981 252.961 227.17 252.961C230.954 252.954 234.71 252.414 238.275 251.364C244.14 249.676 249.332 246.684 253.28 242.716C257.228 238.747 259.78 233.955 260.657 228.865C261.534 223.774 260.702 218.582 258.252 213.858C255.802 209.133 251.829 205.058 246.767 202.08C241.706 199.101 235.752 197.334 229.558 196.973C223.365 196.611 217.17 197.668 211.654 200.029C206.138 202.389 201.513 205.962 198.286 210.355C195.059 214.748 193.355 219.791 193.361 224.933Z" fill="#FBBEBE"/>
<path opacity="0.1" d="M65.0113 352.752C68.0408 353.212 71.7837 354.058 71.7837 355.356C71.7837 357.544 114.056 369.366 114.056 369.366C114.056 369.366 112.471 372.422 116.698 377.68C120.925 382.938 155.298 413.132 155.298 413.132L155.184 414.021L154.743 417.5L152.647 434.136C152.647 434.136 165.857 430.197 170.085 430.635C171.45 430.774 172.938 430.051 174.303 429.001C173.801 427.014 172.867 425.119 171.546 423.407C171.546 423.407 168.121 421.176 162.951 418.222V362.423L73.1752 344.365L65.0465 351.075C64.9916 351.633 64.9799 352.193 65.0113 352.752Z" fill="black"/>
<path d="M61.2068 349.667C61.2068 349.667 71.7749 350.535 71.7749 352.73C71.7749 354.925 114.047 366.74 114.047 366.74C114.047 366.74 112.462 369.796 116.689 375.054C120.917 380.313 155.289 410.506 155.289 410.506L152.647 431.51C152.647 431.51 165.857 427.572 170.085 428.009C171.978 428.206 174.065 426.755 175.791 425.092C177.223 423.69 178.499 422.184 179.605 420.592C179.605 420.592 174.84 403.95 181.19 400.011C187.54 396.073 174.321 367.192 174.321 367.192C174.321 367.192 168.341 346.655 170.102 337.845C170.214 337.258 170.385 336.68 170.613 336.117C170.613 336.051 170.657 335.985 170.692 335.92C174.462 327.503 215.008 256.899 215.008 256.899C214.982 254.897 214.811 252.897 214.497 250.911C214.418 250.357 214.312 249.781 214.18 249.205C213.975 248.155 213.702 247.116 213.361 246.091C213.132 245.42 212.885 244.778 212.595 244.165C211.344 241.496 209.424 239.447 206.553 239.396C206.553 239.396 203.383 236.478 195.985 235.705C190.525 235.115 182.775 235.705 172.207 239.396C147.372 248.147 141.56 248.585 141.56 248.585L129.072 262.128L126.5 264.914C117.101 275.067 108.593 285.764 101.04 296.923C96.8829 303.108 91 310.321 83.9458 314.653C69.6701 323.412 61.2068 349.667 61.2068 349.667Z" fill="#31CF2B"/>
<path opacity="0.1" d="M153.836 299.06C153.836 299.06 118.556 306.28 104.88 324.499L153.836 299.06Z" fill="black"/>
<path opacity="0.1" d="M142.933 331.062C142.933 331.062 136.267 368.155 138.116 370.948C139.966 373.742 142.933 331.062 142.933 331.062Z" fill="black"/>
<path opacity="0.1" d="M145.32 350.105C147.892 352.891 158.31 374.398 158.31 374.398L155.298 410.506L152.656 431.51C152.656 431.51 165.866 427.572 170.102 428.009C171.987 428.206 174.083 426.762 175.809 425.092C173.061 412.789 167.196 387.051 166.122 386.556C164.721 385.899 157.588 365.216 157.209 359.469C156.83 353.722 146.896 340.769 146.896 340.769C146.896 340.769 142.74 347.319 145.32 350.105Z" fill="black"/>
<path opacity="0.1" d="M155.298 314.653C155.941 316.294 156.962 325.811 156.962 325.811C157.685 334.206 165.346 336.948 170.102 337.823C170.214 337.236 170.385 336.658 170.613 336.095C173.783 328.663 215.008 256.877 215.008 256.877C214.965 253.234 214.412 249.607 213.361 246.069C204.387 243.881 190.173 247.25 190.173 247.25C186.069 246.805 172.674 268.867 172.674 268.867C172.674 268.867 163.744 285.765 162.766 288.062C161.789 290.36 162.766 294.145 162.37 295.458C161.973 296.77 157.799 297.908 157.209 299.724C156.619 301.54 157.006 305.128 156.61 305.785C156.214 306.441 154.611 313.012 155.298 314.653Z" fill="black"/>
<path d="M158.468 313.34C159.12 314.981 160.133 324.499 160.133 324.499C160.732 331.485 166.157 334.556 170.701 335.898C172.742 336.501 174.878 336.855 177.042 336.948L183.418 341.528L212.841 359.505C212.841 359.505 223.814 342.731 220.838 342.622C217.861 342.513 200.697 330.588 200.697 330.588C195.413 328.269 190.182 320.509 187.742 316.527C187.886 316.047 187.992 315.56 188.059 315.069C189.125 307.637 211.318 279.187 211.318 279.187C211.318 279.187 219.895 270.821 223.242 255.324C223.339 254.974 223.401 254.594 223.48 254.237C223.575 253.754 223.633 253.267 223.656 252.778C224.052 246.82 218.821 244.654 212.603 244.136C209.373 243.928 206.125 244.011 202.916 244.384C199.706 244.716 196.528 245.233 193.405 245.93C190.763 245.646 184.193 254.799 179.895 261.282C177.579 264.797 175.915 267.547 175.915 267.547C175.915 267.547 166.941 284.452 165.937 286.75C164.933 289.047 165.937 292.825 165.54 294.145C165.144 295.465 160.97 296.595 160.388 298.411C159.807 300.227 160.177 303.815 159.781 304.472C159.384 305.128 157.799 311.699 158.468 313.34Z" fill="#31CF2B"/>
<path opacity="0.1" d="M124.325 275.504C129.908 280.259 139.014 280.273 146.289 277.859C153.563 275.445 159.737 271.04 166.491 267.649C170.895 265.461 175.51 263.616 179.825 261.333C180.459 260.99 181.075 260.648 181.674 260.298C186.659 257.38 190.965 253.639 196.117 250.962C199.57 249.071 203.587 248.006 207.725 247.885C209.634 247.869 211.524 248.197 213.264 248.847C213.568 248.957 213.862 249.084 214.145 249.227C215.838 250.038 217.405 251.018 218.812 252.144C220.265 253.231 221.666 254.39 223.216 255.397C223.313 255.047 223.374 254.667 223.453 254.31C223.548 253.827 223.607 253.34 223.63 252.851C224.792 252.946 225.963 252.997 227.152 252.997C230.945 252.981 234.707 252.428 238.275 251.364C238.275 251.247 238.328 251.123 238.354 251.006C239.623 245.493 241.877 239.651 247.267 236.551C250.376 234.75 255.343 234.021 259.64 232.65C261.131 228.35 261.356 223.816 260.297 219.43C259.238 215.043 256.925 210.93 253.552 207.435C250.179 203.941 245.844 201.166 240.911 199.344C235.977 197.522 230.588 196.705 225.195 196.962C219.801 197.218 214.561 198.541 209.912 200.82C205.263 203.098 201.341 206.266 198.474 210.058C195.607 213.849 193.878 218.155 193.433 222.613C192.988 227.071 193.839 231.553 195.915 235.683C190.455 235.093 182.705 235.683 172.137 239.374C147.302 248.125 141.489 248.563 141.489 248.563L129.072 262.128C130.419 263.835 131.943 265.519 132.084 267.51C132.365 271.201 128.068 273.746 124.325 275.504Z" fill="black"/>
<path d="M247.311 233.933C241.948 237.04 239.667 242.874 238.398 248.381C238.002 250.102 237.623 251.918 236.355 253.282C233.511 256.337 227.786 255.47 224.07 253.282C220.353 251.094 217.43 247.768 213.282 246.215C207.769 244.158 201.296 245.66 196.144 248.337C190.992 251.013 186.676 254.755 181.692 257.665C176.875 260.48 171.502 262.485 166.483 265.016C159.737 268.422 153.572 272.82 146.289 275.227C139.006 277.633 129.908 277.633 124.333 272.878C128.076 271.157 132.374 268.612 132.083 264.929C131.793 261.246 126.606 258.482 126.958 254.718C127.31 250.955 132.673 249.453 136.522 247.6C144.58 243.72 147.971 235.202 149.732 227.326C151.071 221.177 152.172 214.3 157.729 210.355C161.304 207.809 166.157 206.978 169.759 204.462C173.176 202.07 175.043 198.445 177.227 195.112C180.811 189.547 185.514 184.384 191.74 181.058C197.967 177.733 205.884 176.449 212.718 178.688C215.36 179.541 217.72 180.876 220.309 181.802C226.738 184.107 234.11 183.8 240.486 186.222C248.332 189.212 253.432 195.819 258.099 202.091C262.089 207.452 269.891 216.94 267.707 223.869C265.479 230.936 253.132 230.556 247.311 233.933Z" fill="#7C5C5C"/>
<g opacity="0.1">
<path opacity="0.1" d="M126.958 254.259C126.987 253.97 127.048 253.685 127.143 253.406C128.561 255.258 130.331 257.052 130.498 259.24C130.539 259.742 130.488 260.246 130.349 260.735C128.772 258.635 126.738 256.673 126.958 254.259Z" fill="black"/>
<path opacity="0.1" d="M144.704 269.531C151.987 267.109 158.151 262.712 164.897 259.32C169.917 256.79 175.289 254.784 180.107 251.969C185.091 249.052 189.407 245.31 194.559 242.641C199.71 239.972 206.183 238.462 211.696 240.519C215.844 242.072 218.742 245.361 222.485 247.586C226.228 249.81 231.925 250.678 234.77 247.622C236.047 246.258 236.417 244.45 236.813 242.729C238.081 237.215 240.336 231.381 245.726 228.274C251.556 224.904 263.894 225.284 266.131 218.173C266.504 216.911 266.602 215.605 266.422 214.315C267.857 217.473 268.588 220.652 267.725 223.424C265.479 230.535 253.141 230.155 247.311 233.525C241.956 236.632 239.667 242.466 238.398 247.98C238.002 249.701 237.632 251.517 236.364 252.873C233.511 255.929 227.786 255.061 224.035 252.837C220.283 250.612 217.394 247.323 213.246 245.77C207.733 243.713 201.26 245.223 196.108 247.892C190.957 250.561 186.641 254.31 181.657 257.22C176.839 260.042 171.467 262.041 166.447 264.571C159.701 267.985 153.537 272.375 146.254 274.782C138.97 277.188 129.873 277.181 124.298 272.426C125.739 271.78 127.106 271.028 128.385 270.18C133.475 271.719 139.552 271.237 144.704 269.531Z" fill="black"/>
</g>
<path d="M718.242 197.934L682.135 167.865C680.365 166.366 678.254 165.172 675.923 164.353C673.593 163.533 671.09 163.104 668.558 163.089C666.026 163.075 663.516 163.476 661.173 164.27C658.829 165.063 656.699 166.233 654.904 167.712L428.166 353.89L332.296 273.877C328.736 270.887 323.888 269.19 318.818 269.16C313.747 269.13 308.87 270.769 305.259 273.717L268.764 303.618C265.157 306.601 263.116 310.641 263.081 314.862C263.046 319.083 265.022 323.146 268.579 326.169L414.172 447.686C417.773 450.674 422.65 452.366 427.748 452.396C432.845 452.426 437.751 450.792 441.403 447.847L718.04 220.477C719.85 219.012 721.292 217.265 722.282 215.337C723.273 213.408 723.792 211.336 723.811 209.241C723.83 207.145 723.347 205.067 722.392 203.127C721.436 201.186 720.026 199.421 718.242 197.934Z" fill="#3ACC6C"/>
<g opacity="0.5">
<path opacity="0.5" d="M663.834 439.051C663.834 439.051 636.903 437.709 640.056 453.338C639.894 454.131 640.039 454.945 640.469 455.665C640.899 456.386 641.593 456.975 642.452 457.35C642.452 457.35 642.452 456.19 645.208 456.584C646.176 456.721 647.161 456.76 648.141 456.7C649.461 456.629 650.717 456.201 651.716 455.483C651.716 455.483 659.281 452.893 662.232 442.639C662.232 442.639 664.407 440.408 664.319 439.832L659.774 441.443C659.774 441.443 661.333 444.156 660.109 446.41C660.109 446.41 659.959 441.538 659.088 441.655C658.911 441.655 656.727 442.596 656.727 442.596C656.727 442.596 659.369 447.322 657.379 450.764C657.379 450.764 658.145 444.929 655.891 442.938L652.694 444.485C652.694 444.485 655.811 449.371 653.698 453.353C653.698 453.353 654.244 447.241 652.016 444.864L649.118 446.731C649.118 446.731 652.051 451.544 650.263 454.855C650.263 454.855 650.034 447.737 648.502 447.198C648.502 447.198 645.965 449.05 645.578 449.816C645.578 449.816 647.586 453.309 646.344 455.154C646.344 455.154 645.578 450.407 644.953 450.392C644.953 450.392 642.425 453.528 642.161 455.679C642.283 453.689 643.033 451.761 644.336 450.086C642.88 450.317 641.536 450.895 640.47 451.748C640.47 451.748 640.858 449.561 644.962 449.327C644.962 449.327 647.049 446.95 647.604 446.804C647.604 446.804 643.526 446.519 641.051 447.431C641.051 447.431 643.227 445.331 648.343 446.286L651.206 444.353C651.206 444.353 645.842 443.741 643.561 444.412C643.561 444.412 646.203 442.559 651.981 443.908L655.098 442.37C655.098 442.37 650.519 441.553 647.788 441.844C647.788 441.844 650.668 440.561 656.014 441.954L658.242 441.122C658.242 441.122 654.887 440.575 653.9 440.495C652.914 440.415 652.87 440.182 652.87 440.182C654.994 439.891 657.173 440.093 659.167 440.765C659.167 440.765 663.914 439.299 663.834 439.051Z" fill="#31CF2B"/>
</g>
<g opacity="0.5">
<path opacity="0.5" d="M615.512 329.903C615.512 329.903 601.835 349.164 620.1 353.919C620.879 354.399 621.822 354.662 622.792 354.673C623.763 354.683 624.713 354.44 625.508 353.977C625.508 353.977 624.283 353.416 625.93 351.592C626.515 350.939 627.006 350.232 627.392 349.485C627.906 348.475 628.014 347.355 627.7 346.29C627.7 346.29 628.343 339.53 618.656 332.703C618.656 332.703 617.238 330.078 616.586 329.881L616.252 333.965C616.252 333.965 619.871 334.053 621.747 335.978C621.747 335.978 616.463 333.878 616.164 334.57C616.111 334.716 616.102 336.758 616.102 336.758C616.102 336.758 622.408 336.933 625.191 339.982C625.191 339.982 619.272 336.773 616.093 337.531L616.304 340.595C616.304 340.595 622.98 340.507 626.309 343.876C626.309 343.876 619.977 340.697 616.41 341.258L617.106 344.248C617.106 344.248 623.623 344.248 626.362 347.085C626.362 347.085 618.603 344.03 617.326 344.897C617.326 344.897 618.207 347.61 618.806 348.245C618.806 348.245 623.482 348.347 624.9 350.105C624.9 350.105 619.448 348.515 619.14 348.967C619.14 348.967 621.377 352.256 623.544 353.43C621.459 352.434 619.725 351.004 618.515 349.281C618.08 350.469 618.08 351.738 618.515 352.927C618.515 352.927 616.304 351.629 617.96 348.551C617.96 348.551 616.34 345.933 616.437 345.452C616.437 345.452 614.288 348.332 614.138 350.557C614.138 350.557 612.87 347.997 616.216 344.649L615.441 341.659C615.441 341.659 612.35 345.35 612.033 347.333C612.033 347.333 611.232 344.555 615.318 340.894L615.071 337.896C615.071 337.896 612.112 340.901 611.197 343.045C611.197 343.045 611.117 340.339 615.036 337.028L615.16 335.008C615.16 335.008 613.046 337.24 612.518 337.925C611.989 338.611 611.716 338.545 611.716 338.545C612.363 336.847 613.567 335.332 615.195 334.169C615.195 334.169 615.811 329.954 615.512 329.903Z" fill="#31CF2B"/>
</g>
<g opacity="0.5">
<path opacity="0.5" d="M529.972 176.23C529.972 176.23 516.304 195.498 534.56 200.246C535.338 200.728 536.281 200.993 537.252 201.004C538.224 201.014 539.174 200.769 539.968 200.305C539.968 200.305 538.743 199.743 540.399 197.92C540.981 197.267 541.469 196.559 541.852 195.812C542.371 194.803 542.479 193.682 542.16 192.618C542.16 192.618 542.812 185.857 533.116 179.031C533.116 179.031 531.698 176.412 531.046 176.216L530.712 180.292C530.712 180.292 534.34 180.38 536.207 182.305C536.207 182.305 530.923 180.205 530.632 180.898C530.571 181.044 530.571 183.086 530.571 183.086C530.571 183.086 536.868 183.261 539.651 186.309C539.651 186.309 533.732 183.1 530.553 183.859L530.773 186.922C530.773 186.922 537.44 186.834 540.769 190.204C540.769 190.204 534.437 187.031 530.87 187.585L531.566 190.576C531.566 190.576 538.083 190.576 540.831 193.42C540.831 193.42 533.063 190.357 531.786 191.232C531.786 191.232 532.667 193.938 533.274 194.572C533.274 194.572 537.942 194.674 539.36 196.432C539.36 196.432 533.908 194.842 533.609 195.294C533.609 195.294 535.837 198.591 538.012 199.758C535.926 198.764 534.189 197.336 532.975 195.615C532.554 196.791 532.554 198.042 532.975 199.218C532.975 199.218 530.765 197.92 532.42 194.806C532.42 194.806 530.8 192.187 530.897 191.706C530.897 191.706 528.748 194.587 528.598 196.811C528.598 196.811 527.33 194.251 530.685 190.904L529.901 187.914C529.901 187.914 526.81 191.604 526.502 193.588C526.502 193.588 525.692 190.809 529.778 187.148L529.532 184.15C529.532 184.15 526.573 187.155 525.657 189.299C525.657 189.299 525.577 186.594 529.496 183.29L529.62 181.262C529.62 181.262 527.506 183.494 526.978 184.18C526.449 184.865 526.176 184.799 526.176 184.799C526.838 183.099 528.058 181.584 529.699 180.424C529.699 180.424 530.271 176.318 529.972 176.23Z" fill="#31CF2B"/>
</g>
<g opacity="0.5">
<path opacity="0.5" d="M235.51 30.3028C235.51 30.3028 184.607 60.9338 218.301 85.1979C218.301 85.1979 222.115 90.9448 229.803 89.4935C229.803 89.4935 227.813 87.3493 233.405 84.7238C235.387 83.7806 237.226 82.6446 238.883 81.3398C241.123 79.5922 242.616 77.2883 243.136 74.7761C243.136 74.7761 252.137 60.8171 239.094 38.7482C239.094 38.7482 239.015 32.0459 237.826 31.1197L232.542 39.5942C232.542 39.5942 240.195 42.5771 242.035 48.1417C242.035 48.1417 233.044 39.5432 231.679 40.8486C231.406 41.1039 229.107 45.4433 229.107 45.4433C229.107 45.4433 242.396 50.6797 244.915 59.3439C244.915 59.3439 235.862 47.9083 228.182 47.0769L225.197 53.7939C225.197 53.7939 239.561 58.7604 242.89 68.5332C242.89 68.5332 232.92 56.8642 224.66 55.2962L222.793 62.232C222.793 62.232 236.69 67.3006 239.393 75.447C239.393 75.447 226.183 62.9175 222.493 63.8437C222.493 63.8437 221.243 70.2908 221.903 72.136C221.903 72.136 231.784 75.9648 232.841 80.8147C232.841 80.8147 222.969 73.2153 221.806 73.9446C221.806 73.9446 222.881 82.6963 226.263 86.9045C226.263 86.9045 220.723 81.0043 220.159 74.1561C220.159 74.1561 216.381 77.8027 216.17 81.8941C216.17 81.8941 212.894 77.4089 219.931 72.0266C219.931 72.0266 219.429 65.1711 220.177 64.223C220.177 64.223 212.321 68.7228 209.495 73.3904C209.495 73.3904 209.662 66.9433 220.591 62.3705L222.282 55.3764C222.282 55.3764 211.529 60.8681 208.631 64.8575C208.631 64.8575 210.032 58.2937 222.881 53.6115L225.734 47.0113C225.734 47.0113 216.047 51.161 211.643 55.0337C211.643 55.0337 214.523 49.1992 226.615 45.137L229.142 40.907C229.142 40.907 222.097 44.043 220.204 45.0932C218.31 46.1434 217.782 45.8225 217.782 45.8225C221.081 42.6857 225.368 40.3702 230.164 39.1348C230.164 39.1348 236.1 30.6456 235.51 30.3028Z" fill="#31CF2B"/>
</g>
<g opacity="0.5">
<path opacity="0.5" d="M186.06 131.378C186.06 131.378 120.212 108.448 111.581 149.793C111.581 149.793 107.081 156.24 113.343 161.564C113.343 161.564 114.69 158.705 121.057 161.659C123.328 162.699 125.741 163.511 128.244 164.08C131.624 164.852 135.215 164.693 138.477 163.628C138.477 163.628 160.124 162.658 178.345 139.196C178.345 139.196 186.148 135.199 186.544 133.697L173.484 134.426C173.484 134.426 174.488 142.339 169.081 147.087C169.081 147.087 173.88 134.805 171.573 134.463C171.106 134.39 164.677 135.09 164.677 135.09C164.677 135.09 166.342 148.852 157.632 155.97C157.632 155.97 165.716 141.974 162.194 135.338L152.568 136.877C152.568 136.877 155.21 151.353 145.681 159.77C145.681 159.77 153.51 144.892 150.49 137.336L141.26 139.903C141.26 139.903 143.488 154.059 135.518 161.053C135.518 161.053 142.475 143.105 139.199 140.633C139.199 140.633 130.903 143.419 129.124 145.008C129.124 145.008 130.445 155.219 125.373 158.902C125.373 158.902 128.49 146.504 126.949 145.993C126.949 145.993 117.306 152.002 114.364 157.188C114.364 157.188 118.037 149.268 125.734 144.79C125.734 144.79 119.27 143.878 114.285 146.124C114.285 146.124 117.623 140.866 128.068 143.36C128.068 143.36 135.809 138.919 137.359 138.984C137.359 138.984 127.477 135.338 120.335 135.79C120.335 135.79 127.988 132.143 139.772 138.233L148.957 135.476C148.957 135.476 136.196 130.058 129.794 130.079C129.794 130.079 138.301 127.352 151.353 134.937L160.776 133.325C160.776 133.325 150.208 127.964 143.074 126.725C143.074 126.725 151.626 125.602 163.488 132.96L169.935 132.515C169.935 132.515 162.132 128.708 159.772 127.782C157.412 126.856 157.517 126.258 157.517 126.258C163.135 127.066 168.37 129.151 172.638 132.282C172.638 132.282 185.998 132.056 186.06 131.378Z" fill="#31CF2B"/>
</g>
<g opacity="0.5">
<path opacity="0.5" d="M146.632 73.4851C146.632 73.4851 123.286 28.8004 89.7232 49.294C89.7232 49.294 82.6161 51.0006 82.6778 57.0976C82.6778 57.0976 85.4431 56.0328 87.1868 60.7952C87.8369 62.4821 88.7237 64.1 89.8288 65.6159C91.3042 67.6711 93.549 69.2715 96.2225 70.1741C96.2225 70.1741 109.75 79.8155 136.734 74.4697C136.734 74.4697 144.122 75.7752 145.391 75.075L137.139 69.3354C137.139 69.3354 132.295 74.5135 125.796 74.7614C125.796 74.7614 137.095 69.7292 135.959 68.4383C135.73 68.1758 131.432 65.5648 131.432 65.5648C131.432 65.5648 122.951 74.5208 112.938 74.6593C112.938 74.6593 127.372 70.1522 129.838 64.5584L123.057 60.9119C123.057 60.9119 114.541 70.7794 103.101 71.2972C103.101 71.2972 117.984 66.1556 121.392 60.2336L114.144 57.4403C114.144 57.4403 105.725 66.9214 96.2049 67.2787C96.2049 67.2787 112.682 59.8981 112.427 56.8861C112.427 56.8861 105.584 54.6252 103.418 54.7565C103.418 54.7565 97.1913 61.4297 91.6342 61.24C91.6342 61.24 102.017 55.3399 101.445 54.3116C101.445 54.3116 91.5814 53.3343 86.2709 55.0409C86.2709 55.0409 93.8976 52.0653 101.551 53.0426C101.551 53.0426 98.3362 49.4471 93.8447 48.448C93.8447 48.448 99.4546 46.8945 103.937 53.2979C103.937 53.2979 111.59 54.3189 112.48 55.0774C112.48 55.0774 109.133 48.2292 104.554 45.1442C104.554 45.1442 111.599 46.6028 114.426 55.7702L121.78 58.476C121.78 58.476 117.931 49.2283 114.109 46.2309C114.109 46.2309 121.04 48.623 123.576 59.2855L130.261 62.7789C130.261 62.7789 127.671 54.6106 124.298 50.5046C124.298 50.5046 130.146 53.874 132.136 63.8437L136.276 66.6151C136.276 66.6151 134.25 60.6785 133.484 59.0157C132.718 57.3528 133.202 57.0465 133.202 57.0465C135.98 60.1756 137.654 63.8821 138.037 67.7528C138.037 67.7528 146.139 73.8717 146.632 73.4851Z" fill="#31CF2B"/>
</g>
<g opacity="0.5">
<path opacity="0.5" d="M601.659 96.7355C601.659 96.7355 596.154 74.8562 578.761 81.5002C577.794 81.5769 576.88 81.9054 576.153 82.4387C575.425 82.972 574.92 83.6826 574.71 84.4685C574.71 84.4685 576.075 84.1987 576.33 86.4741C576.427 87.2816 576.637 88.077 576.956 88.8444C577.396 89.8792 578.226 90.7691 579.325 91.3823C579.325 91.3823 584.327 96.7501 597.035 96.4146C597.035 96.4146 600.214 97.5669 600.866 97.3481L597.792 94.1391C597.792 94.1391 595.036 96.0937 592.095 95.7072C592.095 95.7072 597.731 94.3142 597.379 93.6432C597.299 93.5046 595.661 92.0023 595.661 92.0023C595.661 92.0023 590.853 95.379 586.317 94.6715C586.317 94.6715 593.301 93.7526 595.045 91.4261L592.403 89.2746C592.403 89.2746 587.524 93.0525 582.328 92.4034C582.328 92.4034 589.593 91.2365 591.786 88.8371L588.845 87.0138C588.845 87.0138 584.001 90.6166 579.677 90.055C579.677 90.055 587.911 87.9984 588.131 86.6273C588.131 86.6273 585.313 85.0884 584.318 84.979C584.318 84.979 580.795 87.5024 578.303 86.9919C578.303 86.9919 583.587 85.1395 583.49 84.6289C583.49 84.6289 579.166 83.4329 576.586 83.7902C578.937 83.3682 581.381 83.4612 583.675 84.0601C583.028 82.9545 582.002 82.0312 580.725 81.4054C580.725 81.4054 583.42 81.1356 584.723 84.3226C584.723 84.3226 588.043 85.3656 588.36 85.7813C588.36 85.7813 587.621 82.4483 585.912 80.6761C585.912 80.6761 588.924 81.8649 589.162 86.2115L592.165 87.9911C592.165 87.9911 591.469 83.5423 590.087 81.894C590.087 81.894 592.931 83.5058 592.878 88.4578L595.52 90.5436C595.52 90.5436 595.274 86.671 594.217 84.5706C594.217 84.5706 596.463 86.5324 596.242 91.1344L597.792 92.7024C597.792 92.7024 597.555 89.88 597.396 89.0559C597.238 88.2317 597.484 88.1442 597.484 88.1442C598.384 89.7668 598.723 91.5644 598.462 93.3369C598.462 93.3369 601.394 96.8668 601.659 96.7355Z" fill="#31CF2B"/>
</g>
<g opacity="0.5">
<path opacity="0.5" d="M506.881 502.319C506.881 502.319 501.385 480.439 483.983 487.083C483.014 487.16 482.1 487.488 481.371 488.021C480.641 488.554 480.135 489.265 479.923 490.052C479.923 490.052 481.288 489.782 481.544 492.057C481.639 492.866 481.852 493.662 482.178 494.428C482.615 495.461 483.443 496.351 484.538 496.966C484.538 496.966 489.54 502.333 502.257 501.998C502.257 501.998 505.436 503.15 506.079 502.931L503.014 499.722C503.014 499.722 500.258 501.677 497.308 501.29C497.308 501.29 502.944 499.897 502.592 499.226C502.521 499.088 500.874 497.585 500.874 497.585C500.874 497.585 496.066 500.962 491.53 500.255C491.53 500.255 498.523 499.336 500.258 497.009L497.616 494.821C497.616 494.821 492.79 498.614 487.576 497.943C487.576 497.943 494.842 496.776 497.035 494.376L494.093 492.553C494.093 492.553 489.258 496.156 484.934 495.594C484.934 495.594 493.168 493.545 493.389 492.167C493.389 492.167 490.562 490.628 489.575 490.518C489.575 490.518 486.053 493.042 483.551 492.531C483.551 492.531 488.836 490.679 488.739 490.168C488.739 490.168 484.415 488.972 481.834 489.33C484.188 488.907 486.635 489 488.932 489.6C488.282 488.496 487.257 487.573 485.982 486.945C485.982 486.945 488.668 486.675 489.972 489.862C489.972 489.862 493.301 490.905 493.618 491.321C493.618 491.321 492.878 487.988 491.169 486.215C491.169 486.215 494.181 487.404 494.41 491.751L497.422 493.53C497.422 493.53 496.718 489.082 495.335 487.433C495.335 487.433 498.188 489.045 498.135 493.997L500.777 496.083C500.777 496.083 500.531 492.21 499.465 490.11C499.465 490.11 501.72 492.072 501.5 496.674L503.05 498.242C503.05 498.242 502.803 495.419 502.645 494.595C502.486 493.771 502.733 493.691 502.733 493.691C503.633 495.311 503.972 497.106 503.71 498.876C503.71 498.876 506.634 502.428 506.881 502.319Z" fill="#31CF2B"/>
</g>
</g>
<defs>
<linearGradient id="paint0_linear" x1="47985.4" y1="202417" x2="47985.4" y2="89226.2" gradientUnits="userSpaceOnUse">
<stop stop-color="#808080" stop-opacity="0.25"/>
<stop offset="0.54" stop-color="#808080" stop-opacity="0.12"/>
<stop offset="1" stop-color="#808080" stop-opacity="0.1"/>
</linearGradient>
<clipPath id="clip0">
<rect width="1012" height="551" fill="white"/>
</clipPath>
</defs>
</svg>
