<svg width="56" height="56" viewBox="0 0 56 56" fill="none" xmlns="http://www.w3.org/2000/svg">
<path d="M47.25 8.42595C52.6512 13.784 55.3519 20.2439 55.3519 27.8056C55.3519 35.3673 52.6512 41.8272 47.25 47.1852C41.8488 52.5432 35.3457 55.2222 27.7407 55.2222C23.0741 55.2222 18.7099 54.0988 14.6481 51.8519L0 55.6111L3.88889 41.4815C1.46914 37.2469 0.259259 32.6667 0.259259 27.7408C0.259259 20.2222 2.93827 13.784 8.2963 8.42595C13.6543 3.06793 20.1358 0.388916 27.7407 0.388916C35.3457 0.388916 41.8488 3.06793 47.25 8.42595ZM27.7407 50.5556C34.0494 50.5556 39.4506 48.3303 43.9444 43.8797C48.4383 39.429 50.6852 34.0494 50.6852 27.7408C50.6852 21.4321 48.4383 16.0525 43.9444 11.6019C39.4506 7.15126 34.0494 4.92595 27.7407 4.92595C21.4321 4.92595 16.0525 7.15126 11.6019 11.6019C7.15123 16.0525 4.92593 21.4321 4.92593 27.7408C4.92593 32.1482 6.09259 36.2099 8.42593 39.926L8.94444 40.7037L6.61111 49.1297L15.2963 46.926L16.0741 47.3148C19.7037 49.4753 23.5926 50.5556 27.7407 50.5556ZM40.3148 33.4445C41.0926 33.8766 41.5247 34.179 41.6111 34.3519C41.9568 34.8704 41.8272 35.9506 41.2222 37.5926C40.963 38.284 40.3148 38.9537 39.2778 39.6019C38.2407 40.25 37.3333 40.6605 36.5556 40.8334C35 41.0062 33.5741 40.9198 32.2778 40.5741C30.8086 40.0556 29.5123 39.5803 28.3889 39.1482C27.6975 38.8025 27.0278 38.4352 26.3796 38.0463C25.7315 37.6574 25.1049 37.2685 24.5 36.8797C23.8951 36.4908 23.3333 36.0803 22.8148 35.6482C22.2963 35.2161 21.7994 34.784 21.3241 34.3519C20.8488 33.9198 20.3951 33.4661 19.963 32.9908C19.5309 32.5155 19.1636 32.105 18.8611 31.7593C18.5586 31.4136 18.2562 31.0463 17.9537 30.6574C17.6512 30.2685 17.4136 29.9661 17.2407 29.75C17.0679 29.534 16.9167 29.3179 16.787 29.1019L16.5926 28.7778C14.6914 26.2716 13.7407 23.8951 13.7407 21.6482C13.7407 19.5741 14.5617 17.6729 16.2037 15.9445C16.7222 15.3395 17.3272 15.0371 18.0185 15.0371C18.537 15.0371 18.9691 15.0803 19.3148 15.1667C20.0062 15.1667 20.5247 15.5556 20.8704 16.3334C21.0432 16.5926 21.3025 17.1543 21.6481 18.0185L22.5556 20.2871L22.9444 21.3889C23.2037 21.821 23.2469 22.2099 23.0741 22.5556C22.8148 23.1605 22.5988 23.5494 22.4259 23.7222L22.037 24.1111L21.6481 24.5648L21.3889 24.8889C20.8704 25.4074 20.7407 25.8827 21 26.3148C22.1235 28.2161 23.4198 29.8148 24.8889 31.1111C26.0123 32.0618 27.8704 33.1852 30.463 34.4815C31.0679 34.7408 31.5432 34.6976 31.8889 34.3519C32.9259 33.0556 33.6605 32.1482 34.0926 31.6297C34.4383 31.1111 34.9568 30.9815 35.6481 31.2408C36.1667 31.5 37.7222 32.2346 40.3148 33.4445Z" fill="white"/>
</svg>
